<svg id="svg" version="1.1" width="400" height="399.3333333333333" xmlns="http://www.w3.org/2000/svg" xmlns:xlink="http://www.w3.org/1999/xlink" style="display: block;"><g id="svgg"><path id="path0" d="" stroke="none" fill="#000000" fill-rule="evenodd"></path><path id="path1" d="" stroke="none" fill="#555500" fill-rule="evenodd"></path><path id="path2" d="M211.525 0.852 C 210.870 2.232,209.790 5.963,209.790 6.845 C 209.790 7.262,209.627 7.915,209.427 8.297 C 208.935 9.236,207.792 14.446,207.792 15.747 C 207.792 16.323,207.630 17.106,207.433 17.488 C 207.013 18.298,206.271 23.530,205.691 29.770 C 204.616 41.330,205.643 64.441,207.435 69.050 C 207.632 69.555,207.794 70.364,207.797 70.848 C 207.800 71.332,208.172 73.167,208.624 74.925 C 209.076 76.683,209.595 78.711,209.778 79.432 C 210.441 82.044,211.640 82.324,213.370 80.270 C 214.688 78.706,218.987 74.113,223.439 69.513 C 226.001 66.867,228.968 63.714,230.032 62.508 C 231.097 61.301,233.586 58.637,235.564 56.587 C 239.074 52.949,244.545 47.057,247.353 43.890 C 248.122 43.022,250.122 40.902,251.797 39.178 C 253.473 37.454,255.342 35.391,255.951 34.592 C 257.205 32.948,257.567 33.103,259.161 35.964 C 259.589 36.733,260.031 37.453,260.142 37.562 C 260.553 37.969,262.937 43.022,262.937 43.486 C 262.937 43.750,263.096 44.279,263.290 44.661 C 264.962 47.948,265.469 51.009,265.458 57.742 C 265.448 63.286,264.741 69.131,264.080 69.131 C 263.891 69.131,263.736 69.580,263.736 70.130 C 263.736 70.679,263.556 71.129,263.337 71.129 C 263.117 71.129,262.937 71.433,262.937 71.804 C 262.937 72.565,260.503 77.650,260.040 77.855 C 259.875 77.929,259.740 78.243,259.740 78.555 C 259.740 78.866,259.573 79.121,259.368 79.121 C 259.163 79.121,258.871 79.512,258.719 79.991 C 258.567 80.469,258.015 81.321,257.493 81.885 C 256.971 82.448,256.543 83.009,256.543 83.132 C 256.543 83.752,249.346 91.306,247.041 93.107 C 246.337 93.656,245.760 94.325,245.758 94.593 C 245.754 95.120,249.849 98.302,250.532 98.302 C 250.762 98.302,250.949 98.441,250.949 98.610 C 250.949 98.780,251.578 99.258,252.348 99.672 C 253.117 100.087,253.746 100.536,253.746 100.671 C 253.746 100.807,254.376 101.256,255.145 101.670 C 255.914 102.085,256.543 102.554,256.543 102.714 C 256.543 102.873,256.858 103.109,257.243 103.238 C 258.138 103.539,259.232 104.260,260.514 105.395 C 261.073 105.889,261.742 106.294,262.001 106.294 C 262.259 106.294,262.531 106.429,262.604 106.593 C 262.770 106.968,265.593 109.091,265.924 109.091 C 266.058 109.091,266.385 109.282,266.650 109.514 C 267.896 110.608,279.002 118.282,279.339 118.282 C 279.548 118.282,279.720 118.421,279.720 118.590 C 279.720 118.760,280.350 119.238,281.119 119.652 C 281.888 120.067,282.517 120.557,282.517 120.742 C 282.517 120.927,282.772 121.079,283.084 121.079 C 283.395 121.079,283.710 121.214,283.783 121.379 C 283.976 121.814,287.665 124.276,288.124 124.276 C 288.337 124.276,288.511 124.427,288.511 124.612 C 288.511 124.798,289.141 125.288,289.910 125.702 C 290.679 126.117,291.309 126.594,291.309 126.764 C 291.309 126.934,291.496 127.073,291.725 127.073 C 291.954 127.073,292.359 127.258,292.624 127.485 C 293.471 128.208,305.677 136.616,308.269 138.262 C 308.788 138.591,310.330 139.625,311.695 140.559 C 313.060 141.494,314.258 142.258,314.358 142.258 C 314.900 142.258,317.239 144.403,317.043 144.720 C 316.169 146.134,315.296 164.007,316.064 164.775 C 316.295 165.006,316.484 165.947,316.484 166.867 C 316.484 168.716,317.610 172.627,318.143 172.627 C 318.329 172.627,318.482 172.901,318.482 173.235 C 318.482 173.569,318.895 174.513,319.400 175.333 C 319.905 176.152,321.119 178.442,322.097 180.420 C 323.076 182.398,324.011 184.076,324.176 184.149 C 324.341 184.222,324.476 184.523,324.476 184.816 C 324.476 185.315,325.630 187.767,326.074 188.211 C 326.184 188.322,327.532 190.929,329.071 194.006 C 330.609 197.083,331.963 199.690,332.079 199.800 C 332.195 199.910,332.640 200.809,333.067 201.798 C 333.494 202.787,333.939 203.686,334.055 203.796 C 334.258 203.989,337.595 210.418,341.832 218.781 C 342.945 220.979,343.991 222.837,344.156 222.910 C 344.321 222.984,344.456 223.284,344.456 223.577 C 344.456 224.076,345.610 226.528,346.054 226.973 C 346.164 227.083,347.962 230.589,350.050 234.765 C 352.138 238.941,353.936 242.448,354.046 242.557 C 354.156 242.667,355.235 244.735,356.444 247.153 C 357.652 249.570,358.731 251.638,358.841 251.748 C 358.951 251.858,360.120 254.106,361.439 256.743 C 362.757 259.381,363.935 261.628,364.057 261.738 C 364.399 262.048,365.634 264.807,365.634 265.262 C 365.634 265.485,365.769 265.728,365.934 265.801 C 366.099 265.874,366.765 267.013,367.415 268.332 C 368.065 269.650,368.712 270.819,368.852 270.929 C 370.137 271.934,369.419 273.796,366.632 276.691 C 366.192 277.148,365.204 278.332,364.436 279.321 C 363.668 280.310,362.679 281.512,362.239 281.993 C 361.799 282.474,360.989 283.420,360.440 284.096 C 359.890 284.771,358.991 285.829,358.442 286.447 C 357.892 287.065,356.697 288.456,355.786 289.539 C 354.875 290.622,353.734 291.958,353.251 292.507 C 352.767 293.057,351.714 294.306,350.911 295.283 C 350.108 296.261,349.001 297.551,348.452 298.152 C 347.902 298.752,347.109 299.711,346.689 300.282 C 344.784 302.873,342.857 304.188,342.857 302.897 C 342.857 302.677,342.600 302.498,342.286 302.498 C 341.972 302.498,341.478 302.270,341.187 301.992 C 340.897 301.714,339.760 301.020,338.661 300.449 C 335.456 298.784,333.881 297.917,333.667 297.698 C 333.557 297.586,332.747 297.137,331.868 296.699 C 330.989 296.262,330.210 295.769,330.137 295.604 C 330.063 295.440,329.764 295.305,329.471 295.305 C 329.177 295.305,328.878 295.170,328.805 295.005 C 328.731 294.840,328.132 294.426,327.473 294.084 C 324.498 292.541,321.861 291.098,321.678 290.912 C 321.568 290.801,320.939 290.413,320.280 290.050 C 319.620 289.688,318.092 288.828,316.883 288.139 C 315.674 287.450,313.876 286.487,312.887 286.000 C 311.898 285.513,310.999 285.006,310.889 284.874 C 309.659 283.390,304.496 281.679,304.496 282.756 C 304.496 283.486,305.731 285.714,306.137 285.714 C 306.285 285.714,306.520 286.164,306.658 286.713 C 306.796 287.263,307.085 287.712,307.300 287.712 C 307.516 287.712,307.692 287.907,307.692 288.144 C 307.692 288.382,308.293 289.505,309.027 290.642 C 309.761 291.778,311.137 293.966,312.085 295.504 C 313.032 297.043,313.915 298.392,314.047 298.501 C 314.178 298.611,314.629 299.376,315.048 300.200 C 315.467 301.024,315.941 301.698,316.100 301.698 C 316.260 301.698,316.499 302.013,316.631 302.398 C 316.884 303.131,317.124 303.536,320.413 308.785 L 322.449 312.034 320.365 312.245 C 319.219 312.362,316.237 312.556,313.738 312.678 C 311.238 312.800,309.072 312.975,308.923 313.067 C 308.774 313.159,306.234 312.979,303.277 312.666 C 300.321 312.353,297.692 312.095,297.435 312.093 C 297.023 312.088,296.532 310.601,295.850 307.293 C 295.737 306.743,295.506 305.934,295.337 305.495 C 294.597 303.568,293.706 300.539,293.706 299.946 C 293.706 299.591,293.526 299.301,293.307 299.301 C 293.087 299.301,292.907 298.963,292.907 298.550 C 292.907 297.889,292.506 296.700,291.339 293.906 C 291.155 293.467,290.689 292.298,290.303 291.309 C 289.394 288.979,288.841 287.685,287.401 284.515 C 286.751 283.087,285.816 281.019,285.323 279.920 C 284.830 278.821,283.817 276.644,283.073 275.083 C 282.328 273.521,281.718 272.053,281.718 271.820 C 281.718 271.586,281.583 271.335,281.419 271.262 C 281.254 271.189,280.040 268.989,278.721 266.373 C 277.307 263.568,276.037 261.541,275.624 261.431 C 275.240 261.329,274.925 261.087,274.925 260.892 C 274.925 260.698,274.676 260.539,274.371 260.539 C 274.067 260.539,273.303 260.271,272.673 259.943 C 272.044 259.614,271.214 259.344,270.829 259.343 C 270.445 259.342,270.130 259.161,270.130 258.941 C 270.130 258.721,269.781 258.541,269.354 258.541 C 268.928 258.541,268.476 258.375,268.351 258.173 C 268.225 257.970,267.553 257.679,266.856 257.525 C 266.159 257.372,265.006 256.920,264.293 256.519 C 263.580 256.119,262.354 255.671,261.569 255.524 C 260.783 255.376,260.140 255.117,260.140 254.948 C 260.140 254.778,259.062 254.304,257.746 253.893 C 256.429 253.483,255.350 253.012,255.348 252.847 C 255.346 252.682,254.996 252.547,254.569 252.547 C 254.142 252.547,253.691 252.381,253.565 252.179 C 253.440 251.976,252.808 251.693,252.160 251.551 C 251.513 251.409,250.255 250.941,249.365 250.511 C 248.476 250.081,247.209 249.622,246.551 249.490 C 245.893 249.358,245.355 249.093,245.355 248.901 C 245.355 248.709,245.006 248.551,244.579 248.551 C 244.152 248.551,243.701 248.385,243.575 248.183 C 243.450 247.980,242.814 247.697,242.162 247.553 C 241.510 247.410,240.119 246.858,239.070 246.326 C 238.021 245.793,236.983 245.357,236.763 245.355 C 236.543 245.354,236.004 244.814,235.564 244.156 C 235.125 243.498,234.630 242.959,234.466 242.958 C 234.301 242.958,234.166 242.760,234.166 242.519 C 234.166 242.278,233.761 241.515,233.267 240.822 C 232.037 239.101,230.828 236.915,229.141 233.367 C 228.358 231.718,227.375 229.650,226.958 228.771 C 226.540 227.892,226.083 226.677,225.942 226.070 C 225.801 225.464,225.526 224.869,225.330 224.748 C 225.135 224.627,224.975 224.089,224.975 223.553 C 224.975 223.016,224.812 222.577,224.613 222.577 C 224.414 222.577,224.127 221.679,223.976 220.580 C 223.825 219.481,223.538 218.482,223.339 218.358 C 223.140 218.235,222.977 217.642,222.977 217.039 C 222.977 216.437,222.814 215.773,222.615 215.564 C 222.279 215.211,221.979 213.586,220.924 206.394 C 220.698 204.855,220.428 201.214,220.325 198.302 C 220.221 195.390,220.011 193.010,219.858 193.013 C 218.831 193.036,218.376 194.159,217.756 198.202 C 217.571 199.411,217.143 202.198,216.805 204.396 C 214.512 219.319,214.774 239.984,217.390 250.549 C 217.580 251.319,218.050 253.297,218.433 254.945 C 218.816 256.593,219.276 258.113,219.455 258.322 C 219.634 258.530,219.780 259.020,219.780 259.410 C 219.780 260.835,224.703 272.121,225.473 272.461 C 225.638 272.534,225.774 272.849,225.774 273.160 C 225.774 273.472,225.954 273.726,226.174 273.726 C 226.394 273.726,226.573 273.983,226.573 274.297 C 226.573 274.611,226.810 275.106,227.100 275.396 C 227.389 275.686,227.973 276.463,228.398 277.123 C 228.823 277.782,229.441 278.676,229.770 279.109 C 230.544 280.125,238.143 287.726,239.173 288.514 C 241.088 289.980,246.648 293.315,247.554 293.543 C 248.103 293.680,248.551 293.924,248.551 294.084 C 248.551 294.245,249.540 294.712,250.749 295.123 C 251.958 295.534,252.947 295.967,252.948 296.087 C 252.948 296.206,253.352 296.784,253.847 297.370 C 254.341 297.957,255.105 298.938,255.544 299.551 C 255.984 300.163,256.646 300.975,257.016 301.355 C 257.386 301.734,258.016 302.551,258.415 303.170 C 259.162 304.328,259.635 304.912,261.725 307.252 C 262.391 307.999,262.937 308.729,262.937 308.875 C 262.937 309.021,263.253 309.489,263.640 309.915 C 264.027 310.341,264.971 311.498,265.738 312.486 C 266.505 313.474,267.347 314.553,267.608 314.884 C 267.869 315.214,268.720 316.294,269.499 317.283 C 270.279 318.272,271.234 319.441,271.622 319.880 C 272.010 320.320,272.656 321.188,273.056 321.809 C 273.457 322.430,274.120 323.329,274.531 323.807 C 276.032 325.556,276.741 326.432,277.522 327.510 C 277.962 328.116,278.598 328.894,278.936 329.241 C 279.274 329.587,280.080 330.589,280.728 331.469 C 282.142 333.390,282.827 334.245,284.016 335.575 C 284.510 336.128,284.915 336.700,284.915 336.846 C 284.915 336.992,285.231 337.461,285.618 337.887 C 286.005 338.313,286.944 339.471,287.706 340.460 C 288.467 341.449,289.186 342.348,289.303 342.458 C 289.419 342.567,290.047 343.377,290.697 344.256 C 291.347 345.135,292.065 346.047,292.293 346.283 C 292.521 346.519,293.157 347.297,293.706 348.012 C 297.024 352.326,297.934 353.494,298.296 353.902 C 298.519 354.152,299.061 354.864,299.500 355.483 C 299.940 356.102,300.569 356.892,300.899 357.239 C 301.229 357.585,302.028 358.582,302.676 359.454 C 303.324 360.326,303.954 361.129,304.076 361.239 C 304.198 361.349,305.106 362.517,306.094 363.836 C 307.082 365.155,307.990 366.324,308.112 366.434 C 308.234 366.543,308.854 367.353,309.489 368.232 C 310.124 369.111,310.834 370.010,311.066 370.230 C 311.298 370.450,312.025 371.349,312.681 372.228 C 314.211 374.281,314.938 375.188,315.696 375.996 C 316.032 376.354,316.917 377.496,317.662 378.533 C 318.407 379.571,319.166 380.420,319.348 380.420 C 319.531 380.420,319.680 380.621,319.680 380.866 C 319.680 381.112,320.175 381.896,320.779 382.607 C 321.985 384.028,322.405 384.551,324.472 387.214 C 325.239 388.202,326.183 389.360,326.570 389.786 C 326.956 390.212,327.273 390.706,327.273 390.885 C 327.273 391.063,327.632 391.209,328.072 391.209 C 328.511 391.209,328.871 391.029,328.871 390.809 C 328.871 390.589,329.128 390.410,329.442 390.410 C 329.756 390.410,330.250 390.180,330.541 389.900 C 330.831 389.620,332.417 388.418,334.064 387.228 C 337.384 384.829,337.714 384.572,338.980 383.405 C 339.464 382.959,340.254 382.320,340.736 381.985 C 342.871 380.500,346.676 377.012,352.048 371.613 C 358.048 365.583,359.278 364.251,361.635 361.229 C 362.402 360.245,363.346 359.092,363.733 358.666 C 364.119 358.240,364.436 357.754,364.436 357.585 C 364.436 357.417,364.885 356.830,365.435 356.280 C 365.984 355.731,366.434 355.164,366.434 355.021 C 366.434 354.878,366.973 354.079,367.632 353.247 C 368.292 352.414,368.831 351.549,368.831 351.324 C 368.831 351.100,368.984 350.856,369.170 350.783 C 369.636 350.599,372.827 345.477,372.827 344.912 C 372.827 344.661,373.007 344.456,373.227 344.456 C 373.447 344.456,373.626 344.201,373.626 343.889 C 373.626 343.578,373.761 343.263,373.926 343.190 C 374.091 343.117,374.855 341.798,375.624 340.260 C 376.394 338.721,377.158 337.403,377.323 337.329 C 377.488 337.256,377.622 336.851,377.622 336.430 C 377.622 336.009,377.802 335.664,378.022 335.664 C 378.242 335.664,378.426 335.440,378.431 335.165 C 378.435 334.890,378.971 333.586,379.620 332.268 C 380.270 330.949,380.805 329.555,380.810 329.171 C 380.815 328.786,380.955 328.472,381.121 328.472 C 381.514 328.472,382.329 326.616,382.658 324.972 C 382.800 324.259,383.074 323.676,383.267 323.676 C 383.459 323.676,383.616 323.327,383.616 322.901 C 383.616 322.474,383.776 322.027,383.971 321.906 C 384.166 321.786,384.448 321.034,384.597 320.235 C 384.747 319.436,385.037 318.445,385.242 318.033 C 385.447 317.620,385.791 316.931,386.006 316.501 C 386.222 316.071,386.515 314.988,386.658 314.095 C 386.801 313.201,387.074 312.373,387.265 312.255 C 387.456 312.137,387.612 311.612,387.612 311.089 C 387.612 310.565,387.780 310.034,387.984 309.907 C 388.188 309.781,388.479 308.692,388.629 307.486 C 388.780 306.281,389.062 305.295,389.257 305.295 C 389.451 305.295,389.610 304.766,389.610 304.119 C 389.610 303.473,389.776 302.842,389.979 302.717 C 390.181 302.592,390.472 301.320,390.625 299.890 C 390.778 298.461,391.062 297.194,391.256 297.074 C 391.450 296.954,391.608 296.338,391.608 295.704 C 391.608 295.071,391.767 294.455,391.961 294.335 C 392.154 294.215,392.442 292.721,392.600 291.015 C 392.758 289.308,393.029 287.732,393.202 287.512 C 393.557 287.062,393.801 285.594,394.432 280.120 C 394.673 278.032,395.035 276.011,395.237 275.630 C 395.439 275.248,395.604 274.070,395.604 273.012 C 395.604 271.954,395.772 270.918,395.976 270.709 C 396.181 270.500,396.476 267.942,396.633 265.023 C 396.789 262.105,397.071 259.622,397.260 259.505 C 397.448 259.389,397.602 257.931,397.602 256.267 C 397.602 254.602,397.784 252.589,398.005 251.795 C 398.384 250.437,398.754 244.141,399.569 225.175 C 400.318 207.759,400.079 64.055,399.301 63.801 C 398.916 63.675,397.619 63.204,396.419 62.755 C 395.219 62.306,393.915 61.938,393.522 61.938 C 393.129 61.938,392.807 61.758,392.807 61.538 C 392.807 61.319,392.368 61.139,391.832 61.139 C 391.295 61.139,390.752 60.969,390.624 60.762 C 390.496 60.555,389.586 60.265,388.602 60.118 C 387.618 59.970,386.813 59.690,386.813 59.495 C 386.813 59.300,386.364 59.141,385.814 59.141 C 385.265 59.141,384.815 58.984,384.815 58.792 C 384.815 58.601,384.088 58.328,383.199 58.185 C 382.311 58.043,381.232 57.751,380.802 57.535 C 380.372 57.319,379.699 56.986,379.308 56.794 C 378.916 56.602,377.978 56.310,377.223 56.144 C 376.468 55.978,375.575 55.706,375.238 55.540 C 374.035 54.947,372.595 54.403,370.430 53.726 C 369.221 53.347,367.872 52.896,367.433 52.724 C 366.993 52.551,365.734 52.110,364.635 51.744 C 363.536 51.378,362.368 50.951,362.038 50.795 C 361.708 50.639,360.360 50.180,359.041 49.775 C 357.722 49.370,356.284 48.898,355.844 48.726 C 355.405 48.554,354.146 48.111,353.047 47.741 C 351.948 47.371,350.689 46.915,350.250 46.727 C 349.810 46.540,347.203 45.648,344.456 44.747 C 341.708 43.845,339.101 42.955,338.661 42.769 C 336.394 41.812,334.365 41.159,333.658 41.159 C 333.223 41.159,332.867 40.999,332.867 40.805 C 332.867 40.610,332.373 40.353,331.768 40.234 C 330.118 39.909,327.100 39.004,326.873 38.765 C 326.535 38.409,322.719 37.159,321.978 37.161 C 321.593 37.162,321.279 37.003,321.279 36.809 C 321.279 36.614,320.784 36.365,320.180 36.255 C 319.196 36.076,317.927 35.668,315.485 34.743 C 312.057 33.444,311.175 33.167,310.481 33.167 C 310.046 33.167,309.690 33.007,309.690 32.813 C 309.690 32.618,309.196 32.369,308.591 32.259 C 307.607 32.080,306.338 31.672,303.896 30.747 C 300.468 29.448,299.587 29.171,298.893 29.171 C 298.458 29.171,298.102 28.991,298.102 28.771 C 298.102 28.551,297.663 28.372,297.126 28.372 C 296.590 28.372,296.053 28.212,295.932 28.017 C 295.812 27.822,295.060 27.540,294.261 27.391 C 293.462 27.241,292.516 26.964,292.159 26.776 C 290.861 26.093,288.077 25.175,287.305 25.175 C 286.869 25.175,286.513 25.035,286.513 24.864 C 286.513 24.693,285.390 24.233,284.016 23.842 C 281.671 23.175,280.354 22.696,278.908 21.982 C 278.571 21.816,277.672 21.547,276.910 21.383 C 276.148 21.220,275.345 20.960,275.125 20.806 C 274.905 20.652,273.646 20.198,272.328 19.797 C 269.870 19.051,268.399 18.519,267.320 17.986 C 266.983 17.820,266.084 17.551,265.322 17.387 C 264.560 17.224,263.756 16.961,263.536 16.803 C 263.317 16.644,262.058 16.202,260.739 15.819 C 259.421 15.437,257.982 14.972,257.542 14.786 C 257.103 14.600,255.844 14.145,254.745 13.775 C 253.646 13.405,252.388 12.958,251.948 12.782 C 249.257 11.704,247.639 11.189,246.945 11.189 C 246.510 11.189,246.154 11.029,246.154 10.835 C 246.154 10.640,245.659 10.383,245.055 10.264 C 243.354 9.929,240.382 9.030,240.160 8.783 C 240.050 8.661,238.881 8.216,237.562 7.795 C 236.244 7.373,234.994 6.886,234.785 6.711 C 234.576 6.536,234.003 6.394,233.510 6.394 C 233.018 6.394,232.516 6.234,232.396 6.039 C 232.275 5.844,231.523 5.562,230.724 5.413 C 229.926 5.263,228.980 4.986,228.622 4.798 C 227.325 4.115,224.541 3.197,223.768 3.197 C 223.333 3.197,222.977 3.017,222.977 2.797 C 222.977 2.577,222.538 2.398,222.002 2.398 C 221.465 2.398,220.928 2.238,220.807 2.043 C 220.687 1.848,219.912 1.563,219.085 1.408 C 218.259 1.254,217.364 0.947,217.098 0.727 C 215.922 -0.245,212.003 -0.157,211.525 0.852 M159.840 8.791 C 159.840 9.011,159.484 9.191,159.049 9.191 C 158.357 9.191,157.272 9.533,154.046 10.770 C 153.606 10.939,152.168 11.405,150.849 11.805 C 149.530 12.206,148.272 12.648,148.052 12.787 C 147.832 12.926,146.528 13.388,145.155 13.813 C 143.781 14.238,142.657 14.697,142.657 14.834 C 142.657 14.971,141.930 15.199,141.041 15.341 C 140.153 15.483,139.119 15.755,138.744 15.945 C 137.269 16.692,136.004 17.148,134.678 17.410 C 133.916 17.561,132.972 17.841,132.581 18.033 C 132.189 18.225,131.548 18.539,131.156 18.730 C 130.764 18.922,129.826 19.215,129.071 19.381 C 128.316 19.546,127.423 19.818,127.086 19.984 C 126.021 20.510,124.549 21.044,122.078 21.803 C 120.759 22.208,119.411 22.668,119.081 22.825 C 118.751 22.982,117.882 23.333,117.150 23.605 C 115.795 24.109,115.556 26.160,116.714 27.353 C 116.917 27.561,117.083 28.056,117.083 28.452 C 117.083 28.847,117.263 29.171,117.483 29.171 C 117.702 29.171,117.882 29.458,117.882 29.810 C 117.882 30.161,118.152 31.060,118.482 31.808 C 118.811 32.555,119.359 33.841,119.700 34.665 C 120.040 35.490,120.490 36.476,120.699 36.858 C 120.908 37.239,121.079 37.824,121.079 38.156 C 121.079 38.489,121.259 38.761,121.479 38.761 C 121.698 38.761,121.878 39.050,121.878 39.403 C 121.878 39.757,122.431 41.240,123.106 42.700 C 123.781 44.160,124.667 46.074,125.075 46.953 C 126.301 49.596,128.131 53.663,128.716 55.045 C 129.019 55.759,129.402 56.344,129.568 56.344 C 129.734 56.344,129.870 56.522,129.870 56.741 C 129.870 57.423,131.242 60.340,131.563 60.340 C 131.731 60.340,131.868 60.518,131.868 60.737 C 131.868 61.419,133.240 64.336,133.561 64.336 C 133.729 64.336,133.866 64.514,133.866 64.733 C 133.866 65.415,135.238 68.332,135.559 68.332 C 135.727 68.332,135.865 68.556,135.867 68.831 C 135.869 69.336,136.051 69.711,138.049 73.327 C 138.657 74.426,139.623 76.224,140.197 77.323 C 140.770 78.422,141.334 79.411,141.449 79.520 C 141.564 79.630,142.016 80.440,142.454 81.319 C 142.891 82.198,143.341 83.007,143.453 83.117 C 143.663 83.323,144.711 85.207,145.789 87.313 C 146.126 87.972,146.998 89.447,147.727 90.590 C 148.455 91.733,149.051 92.857,149.051 93.088 C 149.051 93.318,149.190 93.506,149.360 93.506 C 149.529 93.506,150.020 94.181,150.450 95.005 C 154.252 102.288,156.307 104.485,157.930 102.997 C 158.726 102.268,159.939 101.509,160.739 101.240 C 161.124 101.111,161.439 100.868,161.439 100.699 C 161.439 100.531,161.753 100.283,162.138 100.148 C 162.522 100.013,164.096 99.180,165.634 98.298 C 167.173 97.416,169.241 96.291,170.230 95.799 C 171.219 95.308,172.118 94.815,172.228 94.705 C 172.660 94.273,181.040 90.310,181.522 90.310 C 182.095 90.310,183.017 89.219,183.017 88.540 C 183.017 88.195,182.837 87.912,182.617 87.912 C 182.398 87.912,182.218 87.556,182.218 87.121 C 182.218 86.363,181.310 83.592,180.640 82.305 C 180.465 81.968,180.186 81.074,180.020 80.320 C 179.854 79.565,179.583 78.672,179.416 78.335 C 178.560 76.599,177.023 71.873,177.023 70.975 C 177.023 70.620,176.879 70.330,176.702 70.330 C 176.526 70.330,176.160 69.386,175.890 68.232 C 175.019 64.515,174.910 64.139,174.644 63.936 C 174.360 63.719,173.494 60.529,173.152 58.442 C 173.035 57.727,172.779 57.143,172.584 57.143 C 172.388 57.143,172.228 56.754,172.228 56.279 C 172.228 55.449,171.271 51.816,170.614 50.150 C 170.441 49.710,169.991 48.002,169.615 46.354 C 169.239 44.705,168.794 42.997,168.625 42.557 C 168.457 42.118,168.007 40.320,167.625 38.561 C 167.243 36.803,166.797 35.005,166.633 34.565 C 166.259 33.560,165.396 29.453,165.142 27.470 C 165.037 26.644,164.790 25.870,164.593 25.748 C 164.397 25.627,164.234 24.953,164.231 24.252 C 164.228 23.551,163.961 21.988,163.636 20.779 C 163.312 19.570,163.044 17.997,163.042 17.283 C 163.039 16.568,162.883 15.984,162.695 15.984 C 162.507 15.984,162.232 14.686,162.084 13.100 C 161.828 10.338,161.061 8.392,160.231 8.392 C 160.016 8.392,159.840 8.571,159.840 8.791 M69.131 40.035 C 67.246 40.828,66.532 41.092,65.734 41.292 C 65.295 41.402,62.957 42.201,60.539 43.068 C 58.122 43.935,55.874 44.739,55.544 44.855 C 55.215 44.972,54.130 45.356,53.133 45.710 C 52.137 46.064,51.013 46.354,50.636 46.354 C 50.259 46.354,49.950 46.533,49.950 46.753 C 49.950 46.973,49.594 47.153,49.159 47.153 C 48.456 47.153,46.495 47.783,44.156 48.760 C 43.716 48.944,42.368 49.389,41.159 49.750 C 39.950 50.111,38.601 50.560,38.162 50.747 C 37.722 50.934,36.464 51.386,35.365 51.753 C 34.266 52.119,33.097 52.551,32.767 52.713 C 32.438 52.875,30.954 53.351,29.471 53.771 C 27.987 54.192,26.773 54.673,26.773 54.840 C 26.773 55.008,26.444 55.145,26.041 55.145 C 25.638 55.145,25.174 55.278,25.011 55.442 C 24.848 55.605,23.965 55.920,23.050 56.141 C 20.974 56.643,20.805 57.379,22.365 59.127 C 23.031 59.873,23.576 60.593,23.576 60.726 C 23.576 60.859,24.371 61.809,25.342 62.837 C 26.313 63.865,27.347 65.042,27.639 65.453 C 31.092 70.296,52.469 92.127,59.782 98.276 C 61.355 99.599,66.130 103.816,67.765 105.326 C 68.498 106.002,69.566 106.902,70.140 107.324 C 70.713 107.746,71.767 108.631,72.483 109.291 C 73.198 109.950,74.132 110.759,74.559 111.089 C 74.986 111.419,75.889 112.138,76.566 112.687 C 77.243 113.237,78.489 114.226,79.334 114.885 C 80.180 115.544,81.530 116.623,82.335 117.283 C 84.136 118.758,85.800 120.060,88.911 122.429 C 90.230 123.432,91.489 124.395,91.708 124.568 C 91.928 124.741,93.457 125.867,95.105 127.071 C 96.753 128.274,98.340 129.487,98.630 129.765 C 98.920 130.042,99.280 130.270,99.429 130.270 C 99.578 130.270,100.223 130.720,100.861 131.269 C 101.500 131.818,102.129 132.268,102.260 132.268 C 102.391 132.268,103.020 132.718,103.659 133.267 C 104.297 133.816,105.018 134.266,105.261 134.266 C 105.503 134.266,105.926 134.625,106.201 135.065 C 106.475 135.504,106.881 135.864,107.102 135.864 C 107.324 135.864,108.741 136.763,110.252 137.862 C 113.873 140.496,113.976 140.475,117.708 136.383 C 122.129 131.536,128.781 125.080,133.167 121.381 C 134.670 120.113,134.578 119.742,132.168 117.325 C 131.014 116.169,128.991 114.005,127.672 112.518 C 126.354 111.030,124.555 109.047,123.676 108.111 C 121.770 106.080,118.081 101.922,116.222 99.706 C 115.487 98.830,114.525 97.738,114.086 97.280 C 113.646 96.822,112.686 95.704,111.951 94.795 C 111.216 93.887,110.227 92.709,109.753 92.178 C 109.279 91.647,108.548 90.784,108.128 90.262 C 107.708 89.739,106.847 88.681,106.214 87.912 C 105.582 87.143,104.713 86.064,104.285 85.514 C 103.856 84.965,102.919 83.783,102.202 82.888 C 101.486 81.993,100.539 80.765,100.100 80.158 C 99.313 79.073,98.608 78.201,97.079 76.421 C 96.652 75.924,96.304 75.340,96.304 75.122 C 96.304 74.904,96.169 74.723,96.004 74.721 C 95.839 74.718,94.635 73.190,93.329 71.324 C 92.022 69.458,90.808 67.932,90.631 67.932 C 90.454 67.932,90.310 67.740,90.310 67.506 C 90.310 67.130,88.499 64.465,87.884 63.936 C 87.757 63.826,87.312 63.152,86.897 62.438 C 86.481 61.723,86.000 61.139,85.828 61.139 C 85.656 61.139,85.514 60.897,85.514 60.602 C 85.514 60.306,85.075 59.553,84.538 58.928 C 84.000 58.302,83.240 57.195,82.848 56.468 C 82.457 55.740,81.997 55.145,81.827 55.145 C 81.657 55.145,81.518 54.986,81.518 54.791 C 81.518 54.422,78.356 49.501,77.894 49.151 C 77.749 49.041,77.504 48.546,77.350 48.052 C 77.195 47.557,76.901 47.153,76.696 47.153 C 76.491 47.153,76.324 46.883,76.324 46.553 C 76.324 46.224,76.186 45.954,76.019 45.954 C 75.714 45.954,74.992 44.770,74.496 43.457 C 74.351 43.072,74.074 42.757,73.879 42.757 C 73.685 42.757,73.526 42.560,73.526 42.319 C 73.526 40.374,71.199 39.164,69.131 40.035 M0.000 135.584 L 0.000 164.075 1.499 164.582 C 2.323 164.860,3.357 165.237,3.796 165.419 C 4.236 165.601,5.495 166.052,6.593 166.422 C 7.692 166.792,8.951 167.248,9.391 167.435 C 9.830 167.622,11.179 168.071,12.388 168.432 C 13.596 168.793,14.945 169.245,15.385 169.437 C 16.635 169.982,26.578 173.027,27.108 173.027 C 27.369 173.027,27.896 173.192,28.277 173.393 C 28.659 173.595,30.050 174.054,31.369 174.415 C 32.687 174.775,35.005 175.440,36.519 175.892 C 38.033 176.344,39.970 176.808,40.824 176.923 C 41.678 177.037,42.473 177.286,42.591 177.476 C 42.708 177.667,43.198 177.825,43.680 177.828 C 44.161 177.832,45.275 178.093,46.154 178.410 C 47.033 178.727,48.337 178.994,49.051 179.003 C 49.765 179.013,50.350 179.182,50.350 179.379 C 50.350 179.575,51.024 179.822,51.848 179.928 C 53.852 180.184,57.947 181.047,58.941 181.423 C 60.307 181.939,65.678 183.027,66.833 183.022 C 67.438 183.019,67.932 183.179,67.932 183.376 C 67.932 183.574,68.696 183.816,69.630 183.915 C 72.295 184.196,77.241 185.079,78.122 185.431 C 80.709 186.466,84.316 186.199,84.316 184.972 C 84.316 184.556,84.496 184.216,84.715 184.216 C 84.935 184.216,85.115 184.037,85.115 183.819 C 85.115 183.174,86.478 180.220,86.776 180.220 C 86.926 180.220,87.168 179.680,87.313 179.021 C 87.458 178.362,87.724 177.822,87.904 177.822 C 88.085 177.822,88.565 177.014,88.971 176.025 C 89.378 175.037,89.845 174.228,90.010 174.227 C 90.175 174.226,90.310 173.956,90.310 173.626 C 90.310 173.297,90.490 173.027,90.709 173.027 C 90.929 173.027,91.109 172.822,91.109 172.571 C 91.109 172.320,92.098 170.547,93.307 168.631 C 94.515 166.716,95.504 164.943,95.504 164.692 C 95.504 164.441,95.646 164.236,95.818 164.236 C 95.990 164.236,96.457 163.685,96.854 163.012 C 97.734 161.523,97.450 159.840,96.320 159.840 C 95.897 159.840,95.441 159.660,95.305 159.441 C 95.169 159.221,94.754 159.040,94.382 159.038 C 94.010 159.037,93.191 158.767,92.562 158.439 C 91.932 158.111,91.168 157.842,90.863 157.842 C 90.559 157.842,90.310 157.662,90.310 157.443 C 90.310 157.223,89.995 157.042,89.610 157.040 C 89.226 157.039,88.396 156.769,87.767 156.441 C 87.137 156.113,86.373 155.844,86.068 155.844 C 85.764 155.844,85.514 155.672,85.514 155.463 C 85.514 155.253,84.885 154.963,84.116 154.819 C 83.347 154.674,82.717 154.426,82.717 154.266 C 82.717 154.107,81.728 153.640,80.519 153.229 C 79.311 152.818,78.322 152.339,78.322 152.165 C 78.322 151.991,78.007 151.842,77.622 151.835 C 77.238 151.828,76.574 151.559,76.147 151.236 C 75.721 150.913,75.046 150.649,74.649 150.649 C 74.251 150.649,73.926 150.470,73.926 150.250 C 73.926 150.030,73.611 149.844,73.227 149.837 C 72.842 149.830,72.178 149.561,71.752 149.238 C 71.325 148.915,70.651 148.651,70.253 148.651 C 69.856 148.651,69.530 148.514,69.530 148.346 C 69.530 148.025,66.614 146.653,65.931 146.653 C 65.713 146.653,65.534 146.516,65.534 146.348 C 65.534 146.027,62.618 144.655,61.935 144.655 C 61.717 144.655,61.538 144.518,61.538 144.350 C 61.538 144.029,58.622 142.657,57.939 142.657 C 57.721 142.657,57.542 142.517,57.542 142.346 C 57.542 142.174,56.643 141.685,55.544 141.259 C 54.446 140.832,53.546 140.343,53.546 140.172 C 53.546 140.000,53.277 139.860,52.947 139.860 C 52.617 139.860,52.348 139.680,52.348 139.461 C 52.348 139.241,52.123 139.060,51.848 139.058 C 51.573 139.057,50.899 138.809,50.350 138.508 C 49.800 138.206,48.541 137.510,47.552 136.960 C 46.563 136.411,44.769 135.445,43.564 134.814 C 42.360 134.183,41.144 133.453,40.863 133.191 C 40.581 132.930,39.724 132.489,38.957 132.212 C 38.190 131.934,37.562 131.605,37.562 131.479 C 37.562 131.353,36.888 130.897,36.064 130.464 C 35.240 130.032,34.476 129.585,34.366 129.471 C 34.256 129.356,33.447 128.905,32.567 128.468 C 31.688 128.030,30.879 127.582,30.769 127.473 C 30.365 127.069,28.951 126.244,28.272 126.016 C 27.887 125.887,27.572 125.663,27.572 125.519 C 27.572 125.375,26.898 124.902,26.074 124.467 C 25.250 124.033,24.338 123.453,24.047 123.178 C 23.757 122.903,23.262 122.677,22.948 122.677 C 22.635 122.677,22.378 122.498,22.378 122.278 C 22.378 122.058,22.198 121.878,21.979 121.878 C 21.760 121.878,20.360 121.007,18.868 119.942 C 17.375 118.877,15.981 117.933,15.769 117.844 C 15.093 117.560,10.618 114.511,9.820 113.791 C 9.396 113.409,8.722 112.992,8.321 112.865 C 7.920 112.738,7.592 112.466,7.592 112.261 C 7.592 112.056,7.323 111.888,6.993 111.888 C 6.663 111.888,6.394 111.747,6.394 111.575 C 6.394 111.402,5.809 110.921,5.095 110.506 C 4.381 110.090,3.706 109.638,3.596 109.499 C 3.235 109.045,0.530 107.093,0.262 107.093 C 0.118 107.093,0.000 119.914,0.000 135.584 M272.436 148.876 C 272.313 148.999,272.473 150.123,272.792 151.373 C 273.112 152.624,273.473 154.051,273.596 154.545 C 273.719 155.040,273.956 155.445,274.123 155.445 C 274.289 155.445,274.528 155.957,274.653 156.584 C 275.078 158.707,279.584 168.232,280.165 168.232 C 280.360 168.232,280.522 168.457,280.526 168.731 C 280.561 171.503,284.811 173.171,291.218 172.927 C 299.080 172.628,300.753 171.692,298.289 168.970 C 297.623 168.234,296.814 167.253,296.491 166.790 C 296.168 166.326,295.185 165.130,294.306 164.132 C 293.427 163.134,292.260 161.760,291.713 161.079 C 291.166 160.397,290.491 159.840,290.214 159.840 C 289.937 159.840,289.710 159.664,289.710 159.448 C 289.710 159.233,289.261 158.943,288.711 158.805 C 288.162 158.668,287.712 158.423,287.712 158.261 C 287.712 158.100,287.083 157.629,286.314 157.215 C 285.544 156.801,284.915 156.323,284.915 156.153 C 284.915 155.983,284.645 155.844,284.316 155.844 C 283.986 155.844,283.716 155.668,283.716 155.452 C 283.716 155.237,283.267 154.947,282.717 154.809 C 282.168 154.672,281.718 154.427,281.718 154.265 C 281.718 154.104,281.089 153.633,280.320 153.219 C 279.550 152.805,278.921 152.327,278.921 152.157 C 278.921 151.987,278.651 151.848,278.322 151.848 C 277.992 151.848,277.722 151.672,277.722 151.456 C 277.722 151.241,277.273 150.951,276.723 150.813 C 276.174 150.676,275.724 150.441,275.724 150.293 C 275.724 149.603,272.918 148.394,272.436 148.876 M0.488 209.305 C -0.102 209.705,0.261 231.635,0.863 232.008 C 1.048 232.122,1.213 234.227,1.231 236.687 C 1.263 241.053,1.754 248.847,2.237 252.647 L 2.478 254.545 4.812 254.545 C 6.095 254.545,7.257 254.366,7.393 254.146 C 7.528 253.926,8.483 253.743,9.514 253.738 C 10.545 253.734,12.557 253.544,13.986 253.316 C 18.473 252.599,21.275 252.186,24.573 251.752 C 26.329 251.521,28.397 251.157,29.168 250.943 C 29.939 250.729,31.244 250.553,32.068 250.552 C 32.892 250.550,33.566 250.395,33.566 250.207 C 33.566 250.019,34.814 249.749,36.339 249.607 C 37.864 249.466,39.584 249.170,40.161 248.951 C 40.738 248.731,41.799 248.551,42.517 248.551 C 43.235 248.551,43.957 248.417,44.122 248.252 C 44.385 247.989,46.149 247.607,51.149 246.730 C 51.918 246.596,52.817 246.379,53.147 246.249 C 53.746 246.013,57.615 245.196,60.440 244.709 C 61.264 244.567,61.938 244.294,61.938 244.103 C 61.938 243.912,62.469 243.756,63.118 243.756 C 66.002 243.756,66.793 242.466,67.372 236.810 C 67.522 235.343,67.800 234.048,67.988 233.931 C 68.177 233.815,68.332 233.021,68.332 232.168 C 68.332 231.315,68.497 230.514,68.700 230.389 C 68.902 230.264,69.193 228.994,69.346 227.568 C 69.499 226.142,69.763 224.975,69.933 224.975 C 70.103 224.975,70.337 224.391,70.452 223.676 C 70.782 221.639,71.542 218.460,71.909 217.582 C 72.623 215.875,73.415 212.765,73.247 212.326 C 73.119 211.990,67.082 211.808,50.821 211.653 C 38.584 211.535,27.672 211.333,26.573 211.204 C 25.475 211.074,21.878 210.792,18.581 210.577 C 12.122 210.155,6.191 209.639,2.997 209.221 C 1.898 209.077,0.769 209.115,0.488 209.305 M329.813 261.144 C 329.685 261.476,329.750 261.971,329.956 262.243 C 330.163 262.515,330.656 263.636,331.053 264.735 C 331.449 265.834,331.930 266.904,332.120 267.113 C 332.311 267.322,332.468 267.721,332.468 268.001 C 332.468 268.281,332.893 269.459,333.413 270.618 C 333.933 271.778,334.694 273.536,335.104 274.525 C 335.877 276.390,336.804 277.407,337.398 277.039 C 337.704 276.850,340.085 276.652,351.349 275.877 C 355.139 275.616,355.571 273.327,351.829 273.327 C 351.510 273.327,351.249 273.185,351.249 273.012 C 351.249 272.839,350.080 272.344,348.651 271.913 C 347.223 271.482,346.054 270.994,346.054 270.829 C 346.054 270.664,345.773 270.529,345.430 270.529 C 344.491 270.529,340.796 268.682,339.660 267.644 C 339.111 267.142,337.524 265.833,336.135 264.734 C 334.745 263.636,333.037 262.246,332.339 261.645 C 330.904 260.410,330.152 260.261,329.813 261.144 M61.730 274.846 C 61.515 275.035,59.540 275.984,57.343 276.955 C 55.145 277.927,53.287 278.856,53.213 279.021 C 53.140 279.186,52.929 279.321,52.743 279.321 C 52.558 279.321,50.999 279.967,49.280 280.756 C 46.083 282.224,45.105 282.651,41.958 283.951 C 40.969 284.359,40.070 284.789,39.960 284.906 C 39.850 285.023,38.726 285.461,37.463 285.881 C 36.199 286.300,35.165 286.771,35.165 286.928 C 35.165 287.085,34.639 287.318,33.995 287.447 C 33.352 287.575,31.959 288.062,30.899 288.528 C 26.839 290.313,26.330 290.509,25.761 290.509 C 25.438 290.509,25.175 290.689,25.175 290.909 C 25.175 291.129,24.836 291.309,24.421 291.309 C 24.007 291.309,23.153 291.577,22.523 291.906 C 21.894 292.234,21.064 292.504,20.679 292.505 C 20.295 292.506,19.980 292.687,19.980 292.907 C 19.980 293.127,19.626 293.307,19.194 293.307 C 18.762 293.307,17.728 293.601,16.897 293.961 C 16.065 294.322,14.935 294.792,14.386 295.007 C 13.836 295.222,13.111 295.534,12.774 295.700 C 12.437 295.866,11.571 296.132,10.849 296.291 C 9.173 296.659,8.962 297.268,9.553 300.043 C 9.817 301.283,10.133 302.884,10.256 303.600 C 10.378 304.316,10.638 305.001,10.833 305.122 C 11.029 305.243,11.189 305.670,11.189 306.072 C 11.189 306.807,12.190 310.406,12.807 311.888 C 12.991 312.328,13.264 313.311,13.414 314.073 C 13.565 314.835,13.845 315.779,14.037 316.171 C 14.229 316.563,14.543 317.204,14.734 317.596 C 14.926 317.987,15.219 318.926,15.385 319.680 C 15.550 320.435,15.828 321.328,16.001 321.665 C 16.528 322.689,17.460 324.985,18.034 326.673 C 18.333 327.552,18.683 328.362,18.812 328.472 C 18.941 328.581,19.382 329.615,19.792 330.769 C 20.202 331.923,20.682 332.867,20.858 332.867 C 21.035 332.867,21.179 333.085,21.179 333.351 C 21.179 334.159,24.478 340.460,24.902 340.460 C 25.119 340.460,27.892 338.796,31.063 336.763 C 34.235 334.730,37.122 332.887,37.479 332.667 C 37.836 332.448,38.350 332.088,38.621 331.868 C 38.891 331.648,39.708 331.060,40.436 330.561 C 45.905 326.808,56.663 319.006,57.190 318.412 C 57.545 318.011,58.021 317.682,58.246 317.682 C 58.472 317.682,59.211 317.188,59.889 316.583 C 60.566 315.979,62.024 314.781,63.128 313.921 C 65.336 312.200,65.736 310.234,64.746 305.971 C 64.220 303.707,63.921 298.355,63.603 285.520 C 63.329 274.439,63.178 273.575,61.730 274.846 M70.449 352.600 C 70.105 353.194,68.098 355.680,66.483 357.511 C 65.934 358.133,64.733 359.520,63.812 360.594 C 62.891 361.667,61.419 363.311,60.539 364.247 C 59.660 365.183,57.749 367.272,56.291 368.889 C 54.834 370.505,53.164 372.339,52.580 372.964 C 51.291 374.343,51.484 375.385,53.292 376.817 C 53.981 377.363,55.122 378.352,55.827 379.015 C 56.532 379.678,57.687 380.669,58.395 381.219 C 59.102 381.768,59.874 382.404,60.110 382.632 C 60.346 382.860,61.259 383.579,62.138 384.230 C 63.017 384.882,63.916 385.605,64.136 385.837 C 64.731 386.466,67.442 388.412,67.723 388.412 C 67.857 388.412,68.452 388.861,69.044 389.411 C 69.637 389.960,70.348 390.410,70.625 390.410 C 70.902 390.410,71.129 390.561,71.129 390.746 C 71.129 390.931,71.758 391.422,72.527 391.836 C 73.297 392.250,73.926 392.728,73.926 392.898 C 73.926 393.068,74.196 393.207,74.525 393.207 C 74.855 393.207,75.125 393.383,75.125 393.599 C 75.125 393.814,75.574 394.104,76.124 394.242 C 76.673 394.379,77.123 394.615,77.123 394.765 C 77.123 394.914,78.022 395.562,79.121 396.204 C 80.220 396.846,81.119 397.513,81.119 397.686 C 81.119 397.860,81.376 398.002,81.690 398.002 C 82.004 398.002,82.554 398.295,82.912 398.653 C 83.702 399.443,87.113 399.926,87.113 399.247 C 87.113 398.996,86.933 398.433,86.713 397.997 C 86.494 397.560,86.146 396.865,85.941 396.453 C 85.737 396.040,85.447 395.051,85.298 394.255 C 85.148 393.459,84.866 392.807,84.671 392.807 C 84.475 392.807,84.316 392.368,84.316 391.832 C 84.316 391.295,84.152 390.755,83.951 390.631 C 83.750 390.507,83.465 389.688,83.317 388.811 C 83.169 387.934,82.883 387.116,82.683 386.991 C 82.482 386.867,82.318 386.327,82.318 385.791 C 82.318 385.254,82.158 384.815,81.963 384.815 C 81.769 384.815,81.489 384.010,81.341 383.026 C 81.193 382.042,80.903 381.133,80.696 381.005 C 80.489 380.877,80.320 380.363,80.320 379.863 C 80.320 379.363,80.185 378.820,80.020 378.655 C 79.737 378.372,78.933 375.541,78.451 373.127 C 78.330 372.522,78.095 372.028,77.928 372.028 C 77.762 372.028,77.507 371.136,77.363 370.046 C 77.218 368.957,76.925 367.957,76.712 367.825 C 76.498 367.693,76.324 367.144,76.324 366.604 C 76.324 366.065,76.151 365.311,75.940 364.930 C 75.555 364.233,74.841 361.365,74.448 358.941 C 74.333 358.227,74.103 357.642,73.937 357.642 C 73.772 357.642,73.522 356.669,73.382 355.479 C 72.991 352.150,71.537 350.722,70.449 352.600 " stroke="none" fill="#a1cd3a" fill-rule="evenodd"></path><path id="path3" d="" stroke="none" fill="#00ff00" fill-rule="evenodd"></path><path id="path4" d="" stroke="none" fill="#ffff00" fill-rule="evenodd"></path></g></svg>