<svg width="400" height="400" xmlns="http://www.w3.org/2000/svg" display="block"><g fill-rule="evenodd"><path d="M47.907 126.4c-.303.486-.933.8-1.603.8-.911 0-1.104.175-1.104 1 0 .8-.2 1-1 1s-1 .2-1 1-.2 1-1 1-1 .2-1 1-.2 1-1 1-1 .2-1 1-.2 1-1 1-1 .2-1 1-.2 1-1 1-1 .2-1 1-.2 1-1 1-1 .2-1 1-.2 1-1 1-1 .2-1 1-.2 1-1 1c-1.83 0-1.299 6.797.577 7.393.453.143.823.523.823.843 0 .319.45.786 1 1.037.55.25 1 .7 1 1 0 .299.45.749 1 1 .55.25 1 .7 1 1 0 .299.45.749 1 1 .55.25 1 .7 1 1 0 .299.45.749 1 1 .55.25 1 .7 1 1 0 .299.45.749 1 1 .55.25 1 .7 1 1 0 .299.45.749 1 1 .55.25 1 .7 1 1 0 .299.45.749 1 1 .55.25 1 .7 1 1 0 .299.45.749 1 1 .55.25 1 .7 1 1 0 .299.45.749 1 1 .55.25 1 .7 1 1 0 .299.45.749 1 1 .55.25 1 .7 1 1 0 .299.45.749 1 1 .55.25 1 .7 1 1 0 .299.45.749 1 1 .55.25 1 .7 1 1 0 .299.45.749 1 1 .55.25 1 .7 1 1 0 .299.45.749 1 1 .55.25 1 .7 1 1 0 .299.45.749 1 1 .55.25 1 .7 1 1 0 .299.45.749 1 1 .55.25 1 .7 1 1 0 .299.45.749 1 1 .55.25 1 .7 1 1 0 .299.45.749 1 1 .55.25 1 .7 1 1 0 .299.45.749 1 1 .55.25 1 .7 1 1 0 .299.45.749 1 1 .55.25 1 .7 1 1 0 .299.45.749 1 1 .55.25 1 .7 1 1 0 .299.45.749 1 1 .55.25 1 .7 1 1 0 .299.45.749 1 1 .55.25 1 .7 1 1 0 .299.45.749 1 1 .55.25 1 .7 1 1 0 .299.45.749 1 1 .55.25 1 .7 1 1 0 .299.45.749 1 1 .55.25 1 .7 1 1 0 .299.45.749 1 1 .55.25 1 .7 1 1 0 .299.45.749 1 1 .55.25 1 .7 1 1 0 .299.45.749 1 1 .55.25 1 .7 1 1 0 .299.45.749 1 1 .55.25 1 .7 1 1 0 .299.45.749 1 1 .55.25 1 .7 1 1 0 .299.45.749 1 1 .55.25 1 .7 1 1 0 .299.45.749 1 1 .55.25 1 .7 1 1 0 .299.45.749 1 1 .55.25 1 .7 1 1 0 .299.45.749 1 1 .55.25 1 .7 1 1 0 .299.45.749 1 1 .55.25 1 .7 1 1 0 .299.45.749 1 1 .55.25 1 .7 1 1 0 .299.45.749 1 1 .55.25 1 .7 1 1 0 .299.45.749 1 1 .55.25 1 .7 1 1 0 .299.45.749 1 1 .55.25 1 .7 1 1 0 .299.45.749 1 1 .55.25 1 .7 1 1 0 .299.45.749 1 1 .55.25 1 .7 1 1 0 .299.45.749 1 1 .55.25 1 .7 1 1 0 .299.45.749 1 1 .55.25 1 .7 1 1 0 .299.45.749 1 1 .55.25 1 .7 1 1 0 .299.45.749 1 1 .55.25 1 .7 1 1 0 .299.45.749 1 1 .55.25 1 .7 1 1 0 .299.45.749 1 1 .55.25 1 .7 1 1 0 .299.45.749 1 1 .55.25 1 .7 1 1 0 .299.45.749 1 1 .55.25 1 .7 1 1 0 .299.45.749 1 1 .55.25 1 .7 1 1 0 .299.45.749 1 1 .55.25 1 .7 1 1 0 .299.45.749 1 1 .55.25 1 .7 1 1 0 .299.45.749 1 1 .55.25 1 .7 1 1 0 .299.45.749 1 1 .55.25 1 .7 1 1 0 .299.45.749 1 1 .55.25 1 .7 1 1 0 .299.45.749 1 1 .55.25 1 .7 1 1 0 .299.45.749 1 1 .55.25 1 .7 1 1 0 .299.45.749 1 1 .55.25 1 .7 1 1 0 .299.45.749 1 1 .55.25 1 .7 1 1 0 .299.45.749 1 1 .55.25 1 .7 1 1 0 .299.45.749 1 1 .55.25 1 .7 1 1 0 .299.45.749 1 1 .55.25 1 .7 1 1 0 .299.45.749 1 1 .55.25 1 .7 1 1 0 .299.45.749 1 1 .55.25 1 .7 1 1 0 .299.45.749 1 1 .55.25 1 .7 1 1 0 .299.45.749 1 1 .55.25 1 .7 1 1 0 .299.45.749 1 1 .55.25 1 .7 1 1 0 .299.45.749 1 1 .55.25 1 .7 1 1 0 .299.45.749 1 1 .55.25 1 .7 1 1 0 .299.45.749 1 1 .55.25 1 .7 1 1 0 .299.45.749 1 1 .55.25 1 .7 1 1 0 .299.45.749 1 1 .55.25 1 .7 1 1 0 .299.45.749 1 1 .55.25 1 .7 1 1 0 .299.45.749 1 1 .55.25 1 .7 1 1 0 .299.45.749 1 1 .55.25 1 .7 1 1 0 .299.45.749 1 1 .55.25 1 .7 1 1 0 .299.45.749 1 1 .55.25 1 .7 1 1 0 .299.45.749 1 1 .55.25 1 .7 1 1 0 .299.45.749 1 1 .55.25 1 .7 1 1 0 .299.45.749 1 1 .55.25 1 .7 1 1 0 .299.45.749 1 1 .55.25 1 .7 1 1 0 .299.45.749 1 1 .55.25 1 .69 1 .977 0 .676 1.275 1.35 2.554 1.35.806 0 17.967-16.961 86.027-85.021l85.019-85.02v-2.147c0-2.633-.274-3.412-1.199-3.412-.428 0-.815-.401-.965-1-.156-.621-.535-1-1-1-.466 0-.844-.379-1-1-.156-.621-.535-1-1-1-.466 0-.844-.379-1-1-.156-.621-.535-1-1-1-.466 0-.844-.379-1-1-.156-.621-.535-1-1-1-.466 0-.844-.379-1-1-.156-.621-.535-1-1-1-.466 0-.844-.379-1-1-.184-.731-.519-1-1.244-1-.791 0-.992-.202-.992-1 0-.714-.216-1-.757-1-.473 0-.85-.374-1.007-1-.178-.708-.523-1-1.182-1-.511 0-1.256-.36-1.654-.8-.398-.44-.965-.8-1.259-.8-.294 0-.759.36-1.034.8-.303.486-.933.8-1.603.8-.911 0-1.104.175-1.104 1 0 .8-.2 1-1 1s-1 .2-1 1-.2 1-1 1-1 .2-1 1-.2 1-1 1-1 .2-1 1-.2 1-1 1-1 .2-1 1-.2 1-1 1-1 .2-1 1-.2 1-1 1-1 .2-1 1-.2 1-1 1-1 .2-1 1-.2 1-1 1-1 .2-1 1-.2 1-1 1-1 .2-1 1-.2 1-1 1-1 .2-1 1-.2 1-1 1-1 .2-1 1-.2 1-1 1-1 .2-1 1-.2 1-1 1-1 .2-1 1-.2 1-1 1-1 .2-1 1-.2 1-1 1-1 .2-1 1-.2 1-1 1-1 .2-1 1-.2 1-1 1-1 .2-1 1-.2 1-1 1-1 .2-1 1-.2 1-1 1-1 .2-1 1-.2 1-1 1-1 .2-1 1-.2 1-1 1-1 .2-1 1-.2 1-1 1-1 .2-1 1-.2 1-1 1-1 .2-1 1-.2 1-1 1-1 .2-1 1-.2 1-1 1-1 .2-1 1-.2 1-1 1-1 .2-1 1-.2 1-1 1-1 .2-1 1-.2 1-1 1-1 .2-1 1-.2 1-1 1-1 .2-1 1-.2 1-1 1-1 .2-1 1-.2 1-1 1-1 .2-1 1-.2 1-1 1-1 .2-1 1-.2 1-1 1-1 .2-1 1-.2 1-1 1-1 .2-1 1-.2 1-1 1-1 .2-1 1-.2 1-1 1-1 .2-1 1-.2 1-1 1-1 .2-1 1-.2 1-1 1-1 .2-1 1-.2 1-1 1-1 .2-1 1-.2 1-1 1-1 .2-1 1-.2 1-1 1-1 .2-1 1-.2 1-1 1-1 .2-1 1-.2 1-1 1-1 .2-1 1-.2 1-1 1-1 .2-1 1-.2 1-1 1-1 .2-1 1-.2 1-1 1-1 .2-1 1-.2 1-1 1-1 .2-1 1-.2 1-1 1-1 .2-1 1-.2 1-1 1-1 .2-1 1-.2 1-1 1-1 .2-1 1-.2 1-1 1-1 .2-1 1-.2 1-1 1-1 .2-1 1-.2 1-1 1-1 .2-1 1-.2 1-1 1-1 .2-1 1-.2 1-1 1-1 .2-1 1-.2 1-1 1-1 .2-1 1-.2 1-1 1-1 .2-1 1-.2 1-1 1-1 .2-1 1-.2 1-1 1-1 .2-1 1-.2 1-1 1-1 .2-1 1-.2 1-1 1-1 .2-1 1-.2 1-1 1-1 .2-1 1-.2 1-1 1-1 .2-1 1-.2 1-1 1-1 .2-1 1-.2 1-1 1-1 .2-1 1-.2 1-1 1-1 .2-1 1-.2 1-1 1-1 .2-1 1-.2 1-1 1-1 .2-1 1-.2 1-1 1-1 .2-1 1-.2 1-1 1-1 .2-1 1-.2 1-1 1-1 .2-1 1-.2 1-1 1-1 .2-1 1-.2 1-1 1-1 .2-1 1c0 1.375-1.878 1.465-2.072.1-.081-.57-.449-.946-1.003-1.025a1.13 1.13 0 0 1-1-1 1.133 1.133 0 0 0-1-1 1.13 1.13 0 0 1-1-1 1.133 1.133 0 0 0-1-1 1.13 1.13 0 0 1-1-1 1.133 1.133 0 0 0-1-1 1.13 1.13 0 0 1-1-1 1.133 1.133 0 0 0-1-1 1.13 1.13 0 0 1-1-1 1.133 1.133 0 0 0-1-1 1.13 1.13 0 0 1-1-1 1.133 1.133 0 0 0-1-1 1.13 1.13 0 0 1-1-1 1.133 1.133 0 0 0-1-1 1.13 1.13 0 0 1-1-1 1.133 1.133 0 0 0-1-1 1.13 1.13 0 0 1-1-1 1.133 1.133 0 0 0-1-1 1.13 1.13 0 0 1-1-1 1.133 1.133 0 0 0-1-1 1.13 1.13 0 0 1-1-1 1.133 1.133 0 0 0-1-1 1.13 1.13 0 0 1-1-1 1.133 1.133 0 0 0-1-1 1.13 1.13 0 0 1-1-1 1.133 1.133 0 0 0-1-1 1.13 1.13 0 0 1-1-1 1.133 1.133 0 0 0-1-1 1.13 1.13 0 0 1-1-1 1.133 1.133 0 0 0-1-1 1.13 1.13 0 0 1-1-1 1.133 1.133 0 0 0-1-1 1.13 1.13 0 0 1-1-1 1.133 1.133 0 0 0-1-1 1.13 1.13 0 0 1-1-1 1.133 1.133 0 0 0-1-1 1.13 1.13 0 0 1-1-1 1.133 1.133 0 0 0-1-1 1.13 1.13 0 0 1-1-1 1.133 1.133 0 0 0-1-1 1.13 1.13 0 0 1-1-1 1.133 1.133 0 0 0-1-1 1.13 1.13 0 0 1-1-1c-.088-.618-.448-.912-1.225-1.002-.864-.099-1.1-.335-1.1-1.1 0-.695-.221-.973-.772-.973-.496 0-.818-.322-.9-.9-.081-.57-.449-.946-1.003-1.025a1.13 1.13 0 0 1-1-1 1.133 1.133 0 0 0-1-1 1.13 1.13 0 0 1-1-1 1.133 1.133 0 0 0-1-1 1.13 1.13 0 0 1-1-1 1.133 1.133 0 0 0-1-1 1.13 1.13 0 0 1-1-1 1.133 1.133 0 0 0-1-1 1.13 1.13 0 0 1-1-1 1.133 1.133 0 0 0-1-1 1.13 1.13 0 0 1-1-1 1.133 1.133 0 0 0-1-1 1.13 1.13 0 0 1-1-1 1.133 1.133 0 0 0-1-1 1.13 1.13 0 0 1-1-1 1.133 1.133 0 0 0-1-1 1.13 1.13 0 0 1-1-1 1.133 1.133 0 0 0-1-1 1.13 1.13 0 0 1-1-1 1.133 1.133 0 0 0-1-1 1.13 1.13 0 0 1-1-1 1.133 1.133 0 0 0-1-1 1.13 1.13 0 0 1-1-1 1.133 1.133 0 0 0-1-1 1.13 1.13 0 0 1-1-1 1.133 1.133 0 0 0-1-1 1.13 1.13 0 0 1-1-1 1.133 1.133 0 0 0-1-1 1.13 1.13 0 0 1-1-1 1.133 1.133 0 0 0-1-1 1.13 1.13 0 0 1-1-1 1.133 1.133 0 0 0-1-1 1.13 1.13 0 0 1-1-1 1.133 1.133 0 0 0-1-1 1.13 1.13 0 0 1-1-1 1.133 1.133 0 0 0-1-1 1.13 1.13 0 0 1-1-1 1.133 1.133 0 0 0-1-1 1.13 1.13 0 0 1-1-1 1.133 1.133 0 0 0-1-1 1.13 1.13 0 0 1-1-1 1.133 1.133 0 0 0-1-1 1.13 1.13 0 0 1-1-1 1.133 1.133 0 0 0-1-1 1.13 1.13 0 0 1-1-1 1.133 1.133 0 0 0-1-1 1.13 1.13 0 0 1-1-1 1.133 1.133 0 0 0-1-1 1.13 1.13 0 0 1-1-1 1.133 1.133 0 0 0-1-1 1.13 1.13 0 0 1-1-1 1.133 1.133 0 0 0-1-1 1.13 1.13 0 0 1-1-1 1.133 1.133 0 0 0-1-1 1.13 1.13 0 0 1-1-1 1.133 1.133 0 0 0-1-1 1.13 1.13 0 0 1-1-1 1.133 1.133 0 0 0-1-1 1.13 1.13 0 0 1-1-1 1.133 1.133 0 0 0-1-1 1.13 1.13 0 0 1-1-1 1.133 1.133 0 0 0-1-1 1.13 1.13 0 0 1-1-1 1.133 1.133 0 0 0-1-1 1.13 1.13 0 0 1-1-1 1.133 1.133 0 0 0-1-1 1.13 1.13 0 0 1-1-1 1.133 1.133 0 0 0-1-1 1.13 1.13 0 0 1-1-1 1.133 1.133 0 0 0-1-1 1.13 1.13 0 0 1-1-1 1.133 1.133 0 0 0-1-1 1.13 1.13 0 0 1-1-1 1.133 1.133 0 0 0-1-1 1.13 1.13 0 0 1-1-1 1.133 1.133 0 0 0-1-1 1.13 1.13 0 0 1-1-1 1.133 1.133 0 0 0-1-1 1.13 1.13 0 0 1-1-1 1.133 1.133 0 0 0-1-1 1.13 1.13 0 0 1-1-1 1.133 1.133 0 0 0-1-1 1.13 1.13 0 0 1-1-1 1.133 1.133 0 0 0-1-1 1.13 1.13 0 0 1-1-1 1.133 1.133 0 0 0-1-1 1.13 1.13 0 0 1-1-1 1.133 1.133 0 0 0-1-1 1.13 1.13 0 0 1-1-1 1.133 1.133 0 0 0-1-1 1.13 1.13 0 0 1-1-1 1.133 1.133 0 0 0-1-1 1.13 1.13 0 0 1-1-1 1.133 1.133 0 0 0-1-1 1.13 1.13 0 0 1-1-1 1.133 1.133 0 0 0-1-1 1.13 1.13 0 0 1-1-1c-.087-.608-.448-.912-1.183-.998-.583-.067-1.375-.472-1.762-.9-.9-.994-1.643-.986-2.273.023"/><path d="M47.907 126.4c-.303.486-.933.8-1.603.8-.911 0-1.104.175-1.104 1 0 .8-.2 1-1 1s-1 .2-1 1-.2 1-1 1-1 .2-1 1-.2 1-1 1-1 .2-1 1-.2 1-1 1-1 .2-1 1-.2 1-1 1-1 .2-1 1-.2 1-1 1-1 .2-1 1-.2 1-1 1-1 .2-1 1-.2 1-1 1c-1.83 0-1.299 6.797.577 7.393.453.143.823.523.823.843 0 .319.45.786 1 1.037.55.25 1 .7 1 1 0 .299.45.749 1 1 .55.25 1 .7 1 1 0 .299.45.749 1 1 .55.25 1 .7 1 1 0 .299.45.749 1 1 .55.25 1 .7 1 1 0 .299.45.749 1 1 .55.25 1 .7 1 1 0 .299.45.749 1 1 .55.25 1 .7 1 1 0 .299.45.749 1 1 .55.25 1 .7 1 1 0 .299.45.749 1 1 .55.25 1 .7 1 1 0 .299.45.749 1 1 .55.25 1 .7 1 1 0 .299.45.749 1 1 .55.25 1 .7 1 1 0 .299.45.749 1 1 .55.25 1 .7 1 1 0 .299.45.749 1 1 .55.25 1 .7 1 1 0 .299.45.749 1 1 .55.25 1 .7 1 1 0 .299.45.749 1 1 .55.25 1 .7 1 1 0 .299.45.749 1 1 .55.25 1 .7 1 1 0 .299.45.749 1 1 .55.25 1 .7 1 1 0 .299.45.749 1 1 .55.25 1 .7 1 1 0 .299.45.749 1 1 .55.25 1 .7 1 1 0 .299.45.749 1 1 .55.25 1 .7 1 1 0 .299.45.749 1 1 .55.25 1 .7 1 1 0 .299.45.749 1 1 .55.25 1 .7 1 1 0 .299.45.749 1 1 .55.25 1 .7 1 1 0 .299.45.749 1 1 .55.25 1 .7 1 1 0 .299.45.749 1 1 .55.25 1 .7 1 1 0 .299.45.749 1 1 .55.25 1 .7 1 1 0 .299.45.749 1 1 .55.25 1 .7 1 1 0 .299.45.749 1 1 .55.25 1 .7 1 1 0 .299.45.749 1 1 .55.25 1 .7 1 1 0 .299.45.749 1 1 .55.25 1 .7 1 1 0 .299.45.749 1 1 .55.25 1 .7 1 1 0 .299.45.749 1 1 .55.25 1 .7 1 1 0 .299.45.749 1 1 .55.25 1 .7 1 1 0 .299.45.749 1 1 .55.25 1 .7 1 1 0 .299.45.749 1 1 .55.25 1 .7 1 1 0 .299.45.749 1 1 .55.25 1 .7 1 1 0 .299.45.749 1 1 .55.25 1 .7 1 1 0 .299.45.749 1 1 .55.25 1 .7 1 1 0 .299.45.749 1 1 .55.25 1 .7 1 1 0 .299.45.749 1 1 .55.25 1 .7 1 1 0 .299.45.749 1 1 .55.25 1 .7 1 1 0 .299.45.749 1 1 .55.25 1 .7 1 1 0 .299.45.749 1 1 .55.25 1 .7 1 1 0 .299.45.749 1 1 .55.25 1 .7 1 1 0 .299.45.749 1 1 .55.25 1 .7 1 1 0 .299.45.749 1 1 .55.25 1 .7 1 1 0 .299.45.749 1 1 .55.25 1 .7 1 1 0 .299.45.749 1 1 .55.25 1 .7 1 1 0 .299.45.749 1 1 .55.25 1 .7 1 1 0 .299.45.749 1 1 .55.25 1 .7 1 1 0 .299.45.749 1 1 .55.25 1 .7 1 1 0 .299.45.749 1 1 .55.25 1 .7 1 1 0 .299.45.749 1 1 .55.25 1 .7 1 1 0 .299.45.749 1 1 .55.25 1 .7 1 1 0 .299.45.749 1 1 .55.25 1 .7 1 1 0 .299.45.749 1 1 .55.25 1 .7 1 1 0 .299.45.749 1 1 .55.25 1 .7 1 1 0 .299.45.749 1 1 .55.25 1 .7 1 1 0 .299.45.749 1 1 .55.25 1 .7 1 1 0 .299.45.749 1 1 .55.25 1 .7 1 1 0 .299.45.749 1 1 .55.25 1 .7 1 1 0 .299.45.749 1 1 .55.25 1 .7 1 1 0 .299.45.749 1 1 .55.25 1 .7 1 1 0 .299.45.749 1 1 .55.25 1 .7 1 1 0 .299.45.749 1 1 .55.25 1 .7 1 1 0 .299.45.749 1 1 .55.25 1 .7 1 1 0 .299.45.749 1 1 .55.25 1 .7 1 1 0 .299.45.749 1 1 .55.25 1 .7 1 1 0 .299.45.749 1 1 .55.25 1 .7 1 1 0 .299.45.749 1 1 .55.25 1 .7 1 1 0 .299.45.749 1 1 .55.25 1 .7 1 1 0 .299.45.749 1 1 .55.25 1 .7 1 1 0 .299.45.749 1 1 .55.25 1 .7 1 1 0 .299.45.749 1 1 .55.25 1 .7 1 1 0 .299.45.749 1 1 .55.25 1 .7 1 1 0 .299.45.749 1 1 .55.25 1 .7 1 1 0 .299.45.749 1 1 .55.25 1 .7 1 1 0 .299.45.749 1 1 .55.25 1 .7 1 1 0 .299.45.749 1 1 .55.25 1 .7 1 1 0 .299.45.749 1 1 .55.25 1 .7 1 1 0 .299.45.749 1 1 .55.25 1 .7 1 1 0 .299.45.749 1 1 .55.25 1 .7 1 1 0 .299.45.749 1 1 .55.25 1 .7 1 1 0 .299.45.749 1 1 .55.25 1 .69 1 .977 0 .676 1.275 1.35 2.554 1.35.806 0 17.967-16.961 86.027-85.021l85.019-85.02v-2.147c0-2.633-.274-3.412-1.199-3.412-.428 0-.815-.401-.965-1-.156-.621-.535-1-1-1-.466 0-.844-.379-1-1-.156-.621-.535-1-1-1-.466 0-.844-.379-1-1-.156-.621-.535-1-1-1-.466 0-.844-.379-1-1-.156-.621-.535-1-1-1-.466 0-.844-.379-1-1-.156-.621-.535-1-1-1-.466 0-.844-.379-1-1-.184-.731-.519-1-1.244-1-.791 0-.992-.202-.992-1 0-.714-.216-1-.757-1-.473 0-.85-.374-1.007-1-.178-.708-.523-1-1.182-1-.511 0-1.256-.36-1.654-.8-.398-.44-.965-.8-1.259-.8-.294 0-.759.36-1.034.8-.303.486-.933.8-1.603.8-.911 0-1.104.175-1.104 1 0 .8-.2 1-1 1s-1 .2-1 1-.2 1-1 1-1 .2-1 1-.2 1-1 1-1 .2-1 1-.2 1-1 1-1 .2-1 1-.2 1-1 1-1 .2-1 1-.2 1-1 1-1 .2-1 1-.2 1-1 1-1 .2-1 1-.2 1-1 1-1 .2-1 1-.2 1-1 1-1 .2-1 1-.2 1-1 1-1 .2-1 1-.2 1-1 1-1 .2-1 1-.2 1-1 1-1 .2-1 1-.2 1-1 1-1 .2-1 1-.2 1-1 1-1 .2-1 1-.2 1-1 1-1 .2-1 1-.2 1-1 1-1 .2-1 1-.2 1-1 1-1 .2-1 1-.2 1-1 1-1 .2-1 1-.2 1-1 1-1 .2-1 1-.2 1-1 1-1 .2-1 1-.2 1-1 1-1 .2-1 1-.2 1-1 1-1 .2-1 1-.2 1-1 1-1 .2-1 1-.2 1-1 1-1 .2-1 1-.2 1-1 1-1 .2-1 1-.2 1-1 1-1 .2-1 1-.2 1-1 1-1 .2-1 1-.2 1-1 1-1 .2-1 1-.2 1-1 1-1 .2-1 1-.2 1-1 1-1 .2-1 1-.2 1-1 1-1 .2-1 1-.2 1-1 1-1 .2-1 1-.2 1-1 1-1 .2-1 1-.2 1-1 1-1 .2-1 1-.2 1-1 1-1 .2-1 1-.2 1-1 1-1 .2-1 1-.2 1-1 1-1 .2-1 1-.2 1-1 1-1 .2-1 1-.2 1-1 1-1 .2-1 1-.2 1-1 1-1 .2-1 1-.2 1-1 1-1 .2-1 1-.2 1-1 1-1 .2-1 1-.2 1-1 1-1 .2-1 1-.2 1-1 1-1 .2-1 1-.2 1-1 1-1 .2-1 1-.2 1-1 1-1 .2-1 1-.2 1-1 1-1 .2-1 1-.2 1-1 1-1 .2-1 1-.2 1-1 1-1 .2-1 1-.2 1-1 1-1 .2-1 1-.2 1-1 1-1 .2-1 1-.2 1-1 1-1 .2-1 1-.2 1-1 1-1 .2-1 1-.2 1-1 1-1 .2-1 1-.2 1-1 1-1 .2-1 1-.2 1-1 1-1 .2-1 1-.2 1-1 1-1 .2-1 1-.2 1-1 1-1 .2-1 1-.2 1-1 1-1 .2-1 1-.2 1-1 1-1 .2-1 1-.2 1-1 1-1 .2-1 1-.2 1-1 1-1 .2-1 1-.2 1-1 1-1 .2-1 1-.2 1-1 1-1 .2-1 1-.2 1-1 1-1 .2-1 1-.2 1-1 1-1 .2-1 1-.2 1-1 1-1 .2-1 1-.2 1-1 1-1 .2-1 1-.2 1-1 1-1 .2-1 1-.2 1-1 1-1 .2-1 1-.2 1-1 1-1 .2-1 1-.2 1-1 1-1 .2-1 1-.2 1-1 1-1 .2-1 1c0 1.375-1.878 1.465-2.072.1-.081-.57-.449-.946-1.003-1.025a1.13 1.13 0 0 1-1-1 1.133 1.133 0 0 0-1-1 1.13 1.13 0 0 1-1-1 1.133 1.133 0 0 0-1-1 1.13 1.13 0 0 1-1-1 1.133 1.133 0 0 0-1-1 1.13 1.13 0 0 1-1-1 1.133 1.133 0 0 0-1-1 1.13 1.13 0 0 1-1-1 1.133 1.133 0 0 0-1-1 1.13 1.13 0 0 1-1-1 1.133 1.133 0 0 0-1-1 1.13 1.13 0 0 1-1-1 1.133 1.133 0 0 0-1-1 1.13 1.13 0 0 1-1-1 1.133 1.133 0 0 0-1-1 1.13 1.13 0 0 1-1-1 1.133 1.133 0 0 0-1-1 1.13 1.13 0 0 1-1-1 1.133 1.133 0 0 0-1-1 1.13 1.13 0 0 1-1-1 1.133 1.133 0 0 0-1-1 1.13 1.13 0 0 1-1-1 1.133 1.133 0 0 0-1-1 1.13 1.13 0 0 1-1-1 1.133 1.133 0 0 0-1-1 1.13 1.13 0 0 1-1-1 1.133 1.133 0 0 0-1-1 1.13 1.13 0 0 1-1-1 1.133 1.133 0 0 0-1-1 1.13 1.13 0 0 1-1-1 1.133 1.133 0 0 0-1-1 1.13 1.13 0 0 1-1-1 1.133 1.133 0 0 0-1-1 1.13 1.13 0 0 1-1-1 1.133 1.133 0 0 0-1-1 1.13 1.13 0 0 1-1-1 1.133 1.133 0 0 0-1-1 1.13 1.13 0 0 1-1-1 1.133 1.133 0 0 0-1-1 1.13 1.13 0 0 1-1-1 1.133 1.133 0 0 0-1-1 1.13 1.13 0 0 1-1-1c-.088-.618-.448-.912-1.225-1.002-.864-.099-1.1-.335-1.1-1.1 0-.695-.221-.973-.772-.973-.496 0-.818-.322-.9-.9-.081-.57-.449-.946-1.003-1.025a1.13 1.13 0 0 1-1-1 1.133 1.133 0 0 0-1-1 1.13 1.13 0 0 1-1-1 1.133 1.133 0 0 0-1-1 1.13 1.13 0 0 1-1-1 1.133 1.133 0 0 0-1-1 1.13 1.13 0 0 1-1-1 1.133 1.133 0 0 0-1-1 1.13 1.13 0 0 1-1-1 1.133 1.133 0 0 0-1-1 1.13 1.13 0 0 1-1-1 1.133 1.133 0 0 0-1-1 1.13 1.13 0 0 1-1-1 1.133 1.133 0 0 0-1-1 1.13 1.13 0 0 1-1-1 1.133 1.133 0 0 0-1-1 1.13 1.13 0 0 1-1-1 1.133 1.133 0 0 0-1-1 1.13 1.13 0 0 1-1-1 1.133 1.133 0 0 0-1-1 1.13 1.13 0 0 1-1-1 1.133 1.133 0 0 0-1-1 1.13 1.13 0 0 1-1-1 1.133 1.133 0 0 0-1-1 1.13 1.13 0 0 1-1-1 1.133 1.133 0 0 0-1-1 1.13 1.13 0 0 1-1-1 1.133 1.133 0 0 0-1-1 1.13 1.13 0 0 1-1-1 1.133 1.133 0 0 0-1-1 1.13 1.13 0 0 1-1-1 1.133 1.133 0 0 0-1-1 1.13 1.13 0 0 1-1-1 1.133 1.133 0 0 0-1-1 1.13 1.13 0 0 1-1-1 1.133 1.133 0 0 0-1-1 1.13 1.13 0 0 1-1-1 1.133 1.133 0 0 0-1-1 1.13 1.13 0 0 1-1-1 1.133 1.133 0 0 0-1-1 1.13 1.13 0 0 1-1-1 1.133 1.133 0 0 0-1-1 1.13 1.13 0 0 1-1-1 1.133 1.133 0 0 0-1-1 1.13 1.13 0 0 1-1-1 1.133 1.133 0 0 0-1-1 1.13 1.13 0 0 1-1-1 1.133 1.133 0 0 0-1-1 1.13 1.13 0 0 1-1-1 1.133 1.133 0 0 0-1-1 1.13 1.13 0 0 1-1-1 1.133 1.133 0 0 0-1-1 1.13 1.13 0 0 1-1-1 1.133 1.133 0 0 0-1-1 1.13 1.13 0 0 1-1-1 1.133 1.133 0 0 0-1-1 1.13 1.13 0 0 1-1-1 1.133 1.133 0 0 0-1-1 1.13 1.13 0 0 1-1-1 1.133 1.133 0 0 0-1-1 1.13 1.13 0 0 1-1-1 1.133 1.133 0 0 0-1-1 1.13 1.13 0 0 1-1-1 1.133 1.133 0 0 0-1-1 1.13 1.13 0 0 1-1-1 1.133 1.133 0 0 0-1-1 1.13 1.13 0 0 1-1-1 1.133 1.133 0 0 0-1-1 1.13 1.13 0 0 1-1-1 1.133 1.133 0 0 0-1-1 1.13 1.13 0 0 1-1-1 1.133 1.133 0 0 0-1-1 1.13 1.13 0 0 1-1-1 1.133 1.133 0 0 0-1-1 1.13 1.13 0 0 1-1-1 1.133 1.133 0 0 0-1-1 1.13 1.13 0 0 1-1-1 1.133 1.133 0 0 0-1-1 1.13 1.13 0 0 1-1-1 1.133 1.133 0 0 0-1-1 1.13 1.13 0 0 1-1-1 1.133 1.133 0 0 0-1-1 1.13 1.13 0 0 1-1-1 1.133 1.133 0 0 0-1-1 1.13 1.13 0 0 1-1-1 1.133 1.133 0 0 0-1-1 1.13 1.13 0 0 1-1-1 1.133 1.133 0 0 0-1-1 1.13 1.13 0 0 1-1-1 1.133 1.133 0 0 0-1-1 1.13 1.13 0 0 1-1-1 1.133 1.133 0 0 0-1-1 1.13 1.13 0 0 1-1-1 1.133 1.133 0 0 0-1-1 1.13 1.13 0 0 1-1-1 1.133 1.133 0 0 0-1-1 1.13 1.13 0 0 1-1-1c-.087-.608-.448-.912-1.183-.998-.583-.067-1.375-.472-1.762-.9-.9-.994-1.643-.986-2.273.023"/><path d="M47.907 126.4c-.303.486-.933.8-1.603.8-.911 0-1.104.175-1.104 1 0 .8-.2 1-1 1s-1 .2-1 1-.2 1-1 1-1 .2-1 1-.2 1-1 1-1 .2-1 1-.2 1-1 1-1 .2-1 1-.2 1-1 1-1 .2-1 1-.2 1-1 1-1 .2-1 1-.2 1-1 1-1 .2-1 1-.2 1-1 1c-1.83 0-1.299 6.797.577 7.393.453.143.823.523.823.843 0 .319.45.786 1 1.037.55.25 1 .7 1 1 0 .299.45.749 1 1 .55.25 1 .7 1 1 0 .299.45.749 1 1 .55.25 1 .7 1 1 0 .299.45.749 1 1 .55.25 1 .7 1 1 0 .299.45.749 1 1 .55.25 1 .7 1 1 0 .299.45.749 1 1 .55.25 1 .7 1 1 0 .299.45.749 1 1 .55.25 1 .7 1 1 0 .299.45.749 1 1 .55.25 1 .7 1 1 0 .299.45.749 1 1 .55.25 1 .7 1 1 0 .299.45.749 1 1 .55.25 1 .7 1 1 0 .299.45.749 1 1 .55.25 1 .7 1 1 0 .299.45.749 1 1 .55.25 1 .7 1 1 0 .299.45.749 1 1 .55.25 1 .7 1 1 0 .299.45.749 1 1 .55.25 1 .7 1 1 0 .299.45.749 1 1 .55.25 1 .7 1 1 0 .299.45.749 1 1 .55.25 1 .7 1 1 0 .299.45.749 1 1 .55.25 1 .7 1 1 0 .299.45.749 1 1 .55.25 1 .7 1 1 0 .299.45.749 1 1 .55.25 1 .7 1 1 0 .299.45.749 1 1 .55.25 1 .7 1 1 0 .299.45.749 1 1 .55.25 1 .7 1 1 0 .299.45.749 1 1 .55.25 1 .7 1 1 0 .299.45.749 1 1 .55.25 1 .7 1 1 0 .299.45.749 1 1 .55.25 1 .7 1 1 0 .299.45.749 1 1 .55.25 1 .7 1 1 0 .299.45.749 1 1 .55.25 1 .7 1 1 0 .299.45.749 1 1 .55.25 1 .7 1 1 0 .299.45.749 1 1 .55.25 1 .7 1 1 0 .299.45.749 1 1 .55.25 1 .7 1 1 0 .299.45.749 1 1 .55.25 1 .7 1 1 0 .299.45.749 1 1 .55.25 1 .7 1 1 0 .299.45.749 1 1 .55.25 1 .7 1 1 0 .299.45.749 1 1 .55.25 1 .7 1 1 0 .299.45.749 1 1 .55.25 1 .7 1 1 0 .299.45.749 1 1 .55.25 1 .7 1 1 0 .299.45.749 1 1 .55.25 1 .7 1 1 0 .299.45.749 1 1 .55.25 1 .7 1 1 0 .299.45.749 1 1 .55.25 1 .7 1 1 0 .299.45.749 1 1 .55.25 1 .7 1 1 0 .299.45.749 1 1 .55.25 1 .7 1 1 0 .299.45.749 1 1 .55.25 1 .7 1 1 0 .299.45.749 1 1 .55.25 1 .7 1 1 0 .299.45.749 1 1 .55.25 1 .7 1 1 0 .299.45.749 1 1 .55.25 1 .7 1 1 0 .299.45.749 1 1 .55.25 1 .7 1 1 0 .299.45.749 1 1 .55.25 1 .7 1 1 0 .299.45.749 1 1 .55.25 1 .7 1 1 0 .299.45.749 1 1 .55.25 1 .7 1 1 0 .299.45.749 1 1 .55.25 1 .7 1 1 0 .299.45.749 1 1 .55.25 1 .7 1 1 0 .299.45.749 1 1 .55.25 1 .7 1 1 0 .299.45.749 1 1 .55.25 1 .7 1 1 0 .299.45.749 1 1 .55.25 1 .7 1 1 0 .299.45.749 1 1 .55.25 1 .7 1 1 0 .299.45.749 1 1 .55.25 1 .7 1 1 0 .299.45.749 1 1 .55.25 1 .7 1 1 0 .299.45.749 1 1 .55.25 1 .7 1 1 0 .299.45.749 1 1 .55.25 1 .7 1 1 0 .299.45.749 1 1 .55.25 1 .7 1 1 0 .299.45.749 1 1 .55.25 1 .7 1 1 0 .299.45.749 1 1 .55.25 1 .7 1 1 0 .299.45.749 1 1 .55.25 1 .7 1 1 0 .299.45.749 1 1 .55.25 1 .7 1 1 0 .299.45.749 1 1 .55.25 1 .7 1 1 0 .299.45.749 1 1 .55.25 1 .7 1 1 0 .299.45.749 1 1 .55.25 1 .7 1 1 0 .299.45.749 1 1 .55.25 1 .7 1 1 0 .299.45.749 1 1 .55.25 1 .7 1 1 0 .299.45.749 1 1 .55.25 1 .7 1 1 0 .299.45.749 1 1 .55.25 1 .7 1 1 0 .299.45.749 1 1 .55.25 1 .7 1 1 0 .299.45.749 1 1 .55.25 1 .7 1 1 0 .299.45.749 1 1 .55.25 1 .7 1 1 0 .299.45.749 1 1 .55.25 1 .7 1 1 0 .299.45.749 1 1 .55.25 1 .7 1 1 0 .299.45.749 1 1 .55.25 1 .7 1 1 0 .299.45.749 1 1 .55.25 1 .7 1 1 0 .299.45.749 1 1 .55.25 1 .7 1 1 0 .299.45.749 1 1 .55.25 1 .7 1 1 0 .299.45.749 1 1 .55.25 1 .7 1 1 0 .299.45.749 1 1 .55.25 1 .7 1 1 0 .299.45.749 1 1 .55.25 1 .7 1 1 0 .299.45.749 1 1 .55.25 1 .69 1 .977 0 .676 1.275 1.35 2.554 1.35.806 0 17.967-16.961 86.027-85.021l85.019-85.02v-2.147c0-2.633-.274-3.412-1.199-3.412-.428 0-.815-.401-.965-1-.156-.621-.535-1-1-1-.466 0-.844-.379-1-1-.156-.621-.535-1-1-1-.466 0-.844-.379-1-1-.156-.621-.535-1-1-1-.466 0-.844-.379-1-1-.156-.621-.535-1-1-1-.466 0-.844-.379-1-1-.156-.621-.535-1-1-1-.466 0-.844-.379-1-1-.184-.731-.519-1-1.244-1-.791 0-.992-.202-.992-1 0-.714-.216-1-.757-1-.473 0-.85-.374-1.007-1-.178-.708-.523-1-1.182-1-.511 0-1.256-.36-1.654-.8-.398-.44-.965-.8-1.259-.8-.294 0-.759.36-1.034.8-.303.486-.933.8-1.603.8-.911 0-1.104.175-1.104 1 0 .8-.2 1-1 1s-1 .2-1 1-.2 1-1 1-1 .2-1 1-.2 1-1 1-1 .2-1 1-.2 1-1 1-1 .2-1 1-.2 1-1 1-1 .2-1 1-.2 1-1 1-1 .2-1 1-.2 1-1 1-1 .2-1 1-.2 1-1 1-1 .2-1 1-.2 1-1 1-1 .2-1 1-.2 1-1 1-1 .2-1 1-.2 1-1 1-1 .2-1 1-.2 1-1 1-1 .2-1 1-.2 1-1 1-1 .2-1 1-.2 1-1 1-1 .2-1 1-.2 1-1 1-1 .2-1 1-.2 1-1 1-1 .2-1 1-.2 1-1 1-1 .2-1 1-.2 1-1 1-1 .2-1 1-.2 1-1 1-1 .2-1 1-.2 1-1 1-1 .2-1 1-.2 1-1 1-1 .2-1 1-.2 1-1 1-1 .2-1 1-.2 1-1 1-1 .2-1 1-.2 1-1 1-1 .2-1 1-.2 1-1 1-1 .2-1 1-.2 1-1 1-1 .2-1 1-.2 1-1 1-1 .2-1 1-.2 1-1 1-1 .2-1 1-.2 1-1 1-1 .2-1 1-.2 1-1 1-1 .2-1 1-.2 1-1 1-1 .2-1 1-.2 1-1 1-1 .2-1 1-.2 1-1 1-1 .2-1 1-.2 1-1 1-1 .2-1 1-.2 1-1 1-1 .2-1 1-.2 1-1 1-1 .2-1 1-.2 1-1 1-1 .2-1 1-.2 1-1 1-1 .2-1 1-.2 1-1 1-1 .2-1 1-.2 1-1 1-1 .2-1 1-.2 1-1 1-1 .2-1 1-.2 1-1 1-1 .2-1 1-.2 1-1 1-1 .2-1 1-.2 1-1 1-1 .2-1 1-.2 1-1 1-1 .2-1 1-.2 1-1 1-1 .2-1 1-.2 1-1 1-1 .2-1 1-.2 1-1 1-1 .2-1 1-.2 1-1 1-1 .2-1 1-.2 1-1 1-1 .2-1 1-.2 1-1 1-1 .2-1 1-.2 1-1 1-1 .2-1 1-.2 1-1 1-1 .2-1 1-.2 1-1 1-1 .2-1 1-.2 1-1 1-1 .2-1 1-.2 1-1 1-1 .2-1 1-.2 1-1 1-1 .2-1 1-.2 1-1 1-1 .2-1 1-.2 1-1 1-1 .2-1 1-.2 1-1 1-1 .2-1 1-.2 1-1 1-1 .2-1 1-.2 1-1 1-1 .2-1 1-.2 1-1 1-1 .2-1 1-.2 1-1 1-1 .2-1 1-.2 1-1 1-1 .2-1 1-.2 1-1 1-1 .2-1 1-.2 1-1 1-1 .2-1 1-.2 1-1 1-1 .2-1 1-.2 1-1 1-1 .2-1 1-.2 1-1 1-1 .2-1 1-.2 1-1 1-1 .2-1 1-.2 1-1 1-1 .2-1 1-.2 1-1 1-1 .2-1 1c0 1.375-1.878 1.465-2.072.1-.081-.57-.449-.946-1.003-1.025a1.13 1.13 0 0 1-1-1 1.133 1.133 0 0 0-1-1 1.13 1.13 0 0 1-1-1 1.133 1.133 0 0 0-1-1 1.13 1.13 0 0 1-1-1 1.133 1.133 0 0 0-1-1 1.13 1.13 0 0 1-1-1 1.133 1.133 0 0 0-1-1 1.13 1.13 0 0 1-1-1 1.133 1.133 0 0 0-1-1 1.13 1.13 0 0 1-1-1 1.133 1.133 0 0 0-1-1 1.13 1.13 0 0 1-1-1 1.133 1.133 0 0 0-1-1 1.13 1.13 0 0 1-1-1 1.133 1.133 0 0 0-1-1 1.13 1.13 0 0 1-1-1 1.133 1.133 0 0 0-1-1 1.13 1.13 0 0 1-1-1 1.133 1.133 0 0 0-1-1 1.13 1.13 0 0 1-1-1 1.133 1.133 0 0 0-1-1 1.13 1.13 0 0 1-1-1 1.133 1.133 0 0 0-1-1 1.13 1.13 0 0 1-1-1 1.133 1.133 0 0 0-1-1 1.13 1.13 0 0 1-1-1 1.133 1.133 0 0 0-1-1 1.13 1.13 0 0 1-1-1 1.133 1.133 0 0 0-1-1 1.13 1.13 0 0 1-1-1 1.133 1.133 0 0 0-1-1 1.13 1.13 0 0 1-1-1 1.133 1.133 0 0 0-1-1 1.13 1.13 0 0 1-1-1 1.133 1.133 0 0 0-1-1 1.13 1.13 0 0 1-1-1 1.133 1.133 0 0 0-1-1 1.13 1.13 0 0 1-1-1 1.133 1.133 0 0 0-1-1 1.13 1.13 0 0 1-1-1 1.133 1.133 0 0 0-1-1 1.13 1.13 0 0 1-1-1c-.088-.618-.448-.912-1.225-1.002-.864-.099-1.1-.335-1.1-1.1 0-.695-.221-.973-.772-.973-.496 0-.818-.322-.9-.9-.081-.57-.449-.946-1.003-1.025a1.13 1.13 0 0 1-1-1 1.133 1.133 0 0 0-1-1 1.13 1.13 0 0 1-1-1 1.133 1.133 0 0 0-1-1 1.13 1.13 0 0 1-1-1 1.133 1.133 0 0 0-1-1 1.13 1.13 0 0 1-1-1 1.133 1.133 0 0 0-1-1 1.13 1.13 0 0 1-1-1 1.133 1.133 0 0 0-1-1 1.13 1.13 0 0 1-1-1 1.133 1.133 0 0 0-1-1 1.13 1.13 0 0 1-1-1 1.133 1.133 0 0 0-1-1 1.13 1.13 0 0 1-1-1 1.133 1.133 0 0 0-1-1 1.13 1.13 0 0 1-1-1 1.133 1.133 0 0 0-1-1 1.13 1.13 0 0 1-1-1 1.133 1.133 0 0 0-1-1 1.13 1.13 0 0 1-1-1 1.133 1.133 0 0 0-1-1 1.13 1.13 0 0 1-1-1 1.133 1.133 0 0 0-1-1 1.13 1.13 0 0 1-1-1 1.133 1.133 0 0 0-1-1 1.13 1.13 0 0 1-1-1 1.133 1.133 0 0 0-1-1 1.13 1.13 0 0 1-1-1 1.133 1.133 0 0 0-1-1 1.13 1.13 0 0 1-1-1 1.133 1.133 0 0 0-1-1 1.13 1.13 0 0 1-1-1 1.133 1.133 0 0 0-1-1 1.13 1.13 0 0 1-1-1 1.133 1.133 0 0 0-1-1 1.13 1.13 0 0 1-1-1 1.133 1.133 0 0 0-1-1 1.13 1.13 0 0 1-1-1 1.133 1.133 0 0 0-1-1 1.13 1.13 0 0 1-1-1 1.133 1.133 0 0 0-1-1 1.13 1.13 0 0 1-1-1 1.133 1.133 0 0 0-1-1 1.13 1.13 0 0 1-1-1 1.133 1.133 0 0 0-1-1 1.13 1.13 0 0 1-1-1 1.133 1.133 0 0 0-1-1 1.13 1.13 0 0 1-1-1 1.133 1.133 0 0 0-1-1 1.13 1.13 0 0 1-1-1 1.133 1.133 0 0 0-1-1 1.13 1.13 0 0 1-1-1 1.133 1.133 0 0 0-1-1 1.13 1.13 0 0 1-1-1 1.133 1.133 0 0 0-1-1 1.13 1.13 0 0 1-1-1 1.133 1.133 0 0 0-1-1 1.13 1.13 0 0 1-1-1 1.133 1.133 0 0 0-1-1 1.13 1.13 0 0 1-1-1 1.133 1.133 0 0 0-1-1 1.13 1.13 0 0 1-1-1 1.133 1.133 0 0 0-1-1 1.13 1.13 0 0 1-1-1 1.133 1.133 0 0 0-1-1 1.13 1.13 0 0 1-1-1 1.133 1.133 0 0 0-1-1 1.13 1.13 0 0 1-1-1 1.133 1.133 0 0 0-1-1 1.13 1.13 0 0 1-1-1 1.133 1.133 0 0 0-1-1 1.13 1.13 0 0 1-1-1 1.133 1.133 0 0 0-1-1 1.13 1.13 0 0 1-1-1 1.133 1.133 0 0 0-1-1 1.13 1.13 0 0 1-1-1 1.133 1.133 0 0 0-1-1 1.13 1.13 0 0 1-1-1 1.133 1.133 0 0 0-1-1 1.13 1.13 0 0 1-1-1 1.133 1.133 0 0 0-1-1 1.13 1.13 0 0 1-1-1 1.133 1.133 0 0 0-1-1 1.13 1.13 0 0 1-1-1 1.133 1.133 0 0 0-1-1 1.13 1.13 0 0 1-1-1 1.133 1.133 0 0 0-1-1 1.13 1.13 0 0 1-1-1 1.133 1.133 0 0 0-1-1 1.13 1.13 0 0 1-1-1 1.133 1.133 0 0 0-1-1 1.13 1.13 0 0 1-1-1 1.133 1.133 0 0 0-1-1 1.13 1.13 0 0 1-1-1 1.133 1.133 0 0 0-1-1 1.13 1.13 0 0 1-1-1c-.087-.608-.448-.912-1.183-.998-.583-.067-1.375-.472-1.762-.9-.9-.994-1.643-.986-2.273.023"/><path d="M47.907 126.4c-.303.486-.933.8-1.603.8-.911 0-1.104.175-1.104 1 0 .8-.2 1-1 1s-1 .2-1 1-.2 1-1 1-1 .2-1 1-.2 1-1 1-1 .2-1 1-.2 1-1 1-1 .2-1 1-.2 1-1 1-1 .2-1 1-.2 1-1 1-1 .2-1 1-.2 1-1 1-1 .2-1 1-.2 1-1 1c-1.83 0-1.299 6.797.577 7.393.453.143.823.523.823.843 0 .319.45.786 1 1.037.55.25 1 .7 1 1 0 .299.45.749 1 1 .55.25 1 .7 1 1 0 .299.45.749 1 1 .55.25 1 .7 1 1 0 .299.45.749 1 1 .55.25 1 .7 1 1 0 .299.45.749 1 1 .55.25 1 .7 1 1 0 .299.45.749 1 1 .55.25 1 .7 1 1 0 .299.45.749 1 1 .55.25 1 .7 1 1 0 .299.45.749 1 1 .55.25 1 .7 1 1 0 .299.45.749 1 1 .55.25 1 .7 1 1 0 .299.45.749 1 1 .55.25 1 .7 1 1 0 .299.45.749 1 1 .55.25 1 .7 1 1 0 .299.45.749 1 1 .55.25 1 .7 1 1 0 .299.45.749 1 1 .55.25 1 .7 1 1 0 .299.45.749 1 1 .55.25 1 .7 1 1 0 .299.45.749 1 1 .55.25 1 .7 1 1 0 .299.45.749 1 1 .55.25 1 .7 1 1 0 .299.45.749 1 1 .55.25 1 .7 1 1 0 .299.45.749 1 1 .55.25 1 .7 1 1 0 .299.45.749 1 1 .55.25 1 .7 1 1 0 .299.45.749 1 1 .55.25 1 .7 1 1 0 .299.45.749 1 1 .55.25 1 .7 1 1 0 .299.45.749 1 1 .55.25 1 .7 1 1 0 .299.45.749 1 1 .55.25 1 .7 1 1 0 .299.45.749 1 1 .55.25 1 .7 1 1 0 .299.45.749 1 1 .55.25 1 .7 1 1 0 .299.45.749 1 1 .55.25 1 .7 1 1 0 .299.45.749 1 1 .55.25 1 .7 1 1 0 .299.45.749 1 1 .55.25 1 .7 1 1 0 .299.45.749 1 1 .55.25 1 .7 1 1 0 .299.45.749 1 1 .55.25 1 .7 1 1 0 .299.45.749 1 1 .55.25 1 .7 1 1 0 .299.45.749 1 1 .55.25 1 .7 1 1 0 .299.45.749 1 1 .55.25 1 .7 1 1 0 .299.45.749 1 1 .55.25 1 .7 1 1 0 .299.45.749 1 1 .55.25 1 .7 1 1 0 .299.45.749 1 1 .55.25 1 .7 1 1 0 .299.45.749 1 1 .55.25 1 .7 1 1 0 .299.45.749 1 1 .55.25 1 .7 1 1 0 .299.45.749 1 1 .55.25 1 .7 1 1 0 .299.45.749 1 1 .55.25 1 .7 1 1 0 .299.45.749 1 1 .55.25 1 .7 1 1 0 .299.45.749 1 1 .55.25 1 .7 1 1 0 .299.45.749 1 1 .55.25 1 .7 1 1 0 .299.45.749 1 1 .55.25 1 .7 1 1 0 .299.45.749 1 1 .55.25 1 .7 1 1 0 .299.45.749 1 1 .55.25 1 .7 1 1 0 .299.45.749 1 1 .55.25 1 .7 1 1 0 .299.45.749 1 1 .55.25 1 .7 1 1 0 .299.45.749 1 1 .55.25 1 .7 1 1 0 .299.45.749 1 1 .55.25 1 .7 1 1 0 .299.45.749 1 1 .55.25 1 .7 1 1 0 .299.45.749 1 1 .55.25 1 .7 1 1 0 .299.45.749 1 1 .55.25 1 .7 1 1 0 .299.45.749 1 1 .55.25 1 .7 1 1 0 .299.45.749 1 1 .55.25 1 .7 1 1 0 .299.45.749 1 1 .55.25 1 .7 1 1 0 .299.45.749 1 1 .55.25 1 .7 1 1 0 .299.45.749 1 1 .55.25 1 .7 1 1 0 .299.45.749 1 1 .55.25 1 .7 1 1 0 .299.45.749 1 1 .55.25 1 .7 1 1 0 .299.45.749 1 1 .55.25 1 .7 1 1 0 .299.45.749 1 1 .55.25 1 .7 1 1 0 .299.45.749 1 1 .55.25 1 .7 1 1 0 .299.45.749 1 1 .55.25 1 .7 1 1 0 .299.45.749 1 1 .55.25 1 .7 1 1 0 .299.45.749 1 1 .55.25 1 .7 1 1 0 .299.45.749 1 1 .55.25 1 .7 1 1 0 .299.45.749 1 1 .55.25 1 .7 1 1 0 .299.45.749 1 1 .55.25 1 .7 1 1 0 .299.45.749 1 1 .55.25 1 .7 1 1 0 .299.45.749 1 1 .55.25 1 .7 1 1 0 .299.45.749 1 1 .55.25 1 .7 1 1 0 .299.45.749 1 1 .55.25 1 .7 1 1 0 .299.45.749 1 1 .55.25 1 .7 1 1 0 .299.45.749 1 1 .55.25 1 .7 1 1 0 .299.45.749 1 1 .55.25 1 .7 1 1 0 .299.45.749 1 1 .55.25 1 .7 1 1 0 .299.45.749 1 1 .55.25 1 .7 1 1 0 .299.45.749 1 1 .55.25 1 .7 1 1 0 .299.45.749 1 1 .55.25 1 .7 1 1 0 .299.45.749 1 1 .55.25 1 .7 1 1 0 .299.45.749 1 1 .55.25 1 .7 1 1 0 .299.45.749 1 1 .55.25 1 .69 1 .977 0 .676 1.275 1.35 2.554 1.35.806 0 17.967-16.961 86.027-85.021l85.019-85.02v-2.147c0-2.633-.274-3.412-1.199-3.412-.428 0-.815-.401-.965-1-.156-.621-.535-1-1-1-.466 0-.844-.379-1-1-.156-.621-.535-1-1-1-.466 0-.844-.379-1-1-.156-.621-.535-1-1-1-.466 0-.844-.379-1-1-.156-.621-.535-1-1-1-.466 0-.844-.379-1-1-.156-.621-.535-1-1-1-.466 0-.844-.379-1-1-.184-.731-.519-1-1.244-1-.791 0-.992-.202-.992-1 0-.714-.216-1-.757-1-.473 0-.85-.374-1.007-1-.178-.708-.523-1-1.182-1-.511 0-1.256-.36-1.654-.8-.398-.44-.965-.8-1.259-.8-.294 0-.759.36-1.034.8-.303.486-.933.8-1.603.8-.911 0-1.104.175-1.104 1 0 .8-.2 1-1 1s-1 .2-1 1-.2 1-1 1-1 .2-1 1-.2 1-1 1-1 .2-1 1-.2 1-1 1-1 .2-1 1-.2 1-1 1-1 .2-1 1-.2 1-1 1-1 .2-1 1-.2 1-1 1-1 .2-1 1-.2 1-1 1-1 .2-1 1-.2 1-1 1-1 .2-1 1-.2 1-1 1-1 .2-1 1-.2 1-1 1-1 .2-1 1-.2 1-1 1-1 .2-1 1-.2 1-1 1-1 .2-1 1-.2 1-1 1-1 .2-1 1-.2 1-1 1-1 .2-1 1-.2 1-1 1-1 .2-1 1-.2 1-1 1-1 .2-1 1-.2 1-1 1-1 .2-1 1-.2 1-1 1-1 .2-1 1-.2 1-1 1-1 .2-1 1-.2 1-1 1-1 .2-1 1-.2 1-1 1-1 .2-1 1-.2 1-1 1-1 .2-1 1-.2 1-1 1-1 .2-1 1-.2 1-1 1-1 .2-1 1-.2 1-1 1-1 .2-1 1-.2 1-1 1-1 .2-1 1-.2 1-1 1-1 .2-1 1-.2 1-1 1-1 .2-1 1-.2 1-1 1-1 .2-1 1-.2 1-1 1-1 .2-1 1-.2 1-1 1-1 .2-1 1-.2 1-1 1-1 .2-1 1-.2 1-1 1-1 .2-1 1-.2 1-1 1-1 .2-1 1-.2 1-1 1-1 .2-1 1-.2 1-1 1-1 .2-1 1-.2 1-1 1-1 .2-1 1-.2 1-1 1-1 .2-1 1-.2 1-1 1-1 .2-1 1-.2 1-1 1-1 .2-1 1-.2 1-1 1-1 .2-1 1-.2 1-1 1-1 .2-1 1-.2 1-1 1-1 .2-1 1-.2 1-1 1-1 .2-1 1-.2 1-1 1-1 .2-1 1-.2 1-1 1-1 .2-1 1-.2 1-1 1-1 .2-1 1-.2 1-1 1-1 .2-1 1-.2 1-1 1-1 .2-1 1-.2 1-1 1-1 .2-1 1-.2 1-1 1-1 .2-1 1-.2 1-1 1-1 .2-1 1-.2 1-1 1-1 .2-1 1-.2 1-1 1-1 .2-1 1-.2 1-1 1-1 .2-1 1-.2 1-1 1-1 .2-1 1-.2 1-1 1-1 .2-1 1-.2 1-1 1-1 .2-1 1-.2 1-1 1-1 .2-1 1-.2 1-1 1-1 .2-1 1-.2 1-1 1-1 .2-1 1-.2 1-1 1-1 .2-1 1-.2 1-1 1-1 .2-1 1-.2 1-1 1-1 .2-1 1-.2 1-1 1-1 .2-1 1-.2 1-1 1-1 .2-1 1-.2 1-1 1-1 .2-1 1-.2 1-1 1-1 .2-1 1-.2 1-1 1-1 .2-1 1-.2 1-1 1-1 .2-1 1-.2 1-1 1-1 .2-1 1-.2 1-1 1-1 .2-1 1c0 1.375-1.878 1.465-2.072.1-.081-.57-.449-.946-1.003-1.025a1.13 1.13 0 0 1-1-1 1.133 1.133 0 0 0-1-1 1.13 1.13 0 0 1-1-1 1.133 1.133 0 0 0-1-1 1.13 1.13 0 0 1-1-1 1.133 1.133 0 0 0-1-1 1.13 1.13 0 0 1-1-1 1.133 1.133 0 0 0-1-1 1.13 1.13 0 0 1-1-1 1.133 1.133 0 0 0-1-1 1.13 1.13 0 0 1-1-1 1.133 1.133 0 0 0-1-1 1.13 1.13 0 0 1-1-1 1.133 1.133 0 0 0-1-1 1.13 1.13 0 0 1-1-1 1.133 1.133 0 0 0-1-1 1.13 1.13 0 0 1-1-1 1.133 1.133 0 0 0-1-1 1.13 1.13 0 0 1-1-1 1.133 1.133 0 0 0-1-1 1.13 1.13 0 0 1-1-1 1.133 1.133 0 0 0-1-1 1.13 1.13 0 0 1-1-1 1.133 1.133 0 0 0-1-1 1.13 1.13 0 0 1-1-1 1.133 1.133 0 0 0-1-1 1.13 1.13 0 0 1-1-1 1.133 1.133 0 0 0-1-1 1.13 1.13 0 0 1-1-1 1.133 1.133 0 0 0-1-1 1.13 1.13 0 0 1-1-1 1.133 1.133 0 0 0-1-1 1.13 1.13 0 0 1-1-1 1.133 1.133 0 0 0-1-1 1.13 1.13 0 0 1-1-1 1.133 1.133 0 0 0-1-1 1.13 1.13 0 0 1-1-1 1.133 1.133 0 0 0-1-1 1.13 1.13 0 0 1-1-1 1.133 1.133 0 0 0-1-1 1.13 1.13 0 0 1-1-1 1.133 1.133 0 0 0-1-1 1.13 1.13 0 0 1-1-1c-.088-.618-.448-.912-1.225-1.002-.864-.099-1.1-.335-1.1-1.1 0-.695-.221-.973-.772-.973-.496 0-.818-.322-.9-.9-.081-.57-.449-.946-1.003-1.025a1.13 1.13 0 0 1-1-1 1.133 1.133 0 0 0-1-1 1.13 1.13 0 0 1-1-1 1.133 1.133 0 0 0-1-1 1.13 1.13 0 0 1-1-1 1.133 1.133 0 0 0-1-1 1.13 1.13 0 0 1-1-1 1.133 1.133 0 0 0-1-1 1.13 1.13 0 0 1-1-1 1.133 1.133 0 0 0-1-1 1.13 1.13 0 0 1-1-1 1.133 1.133 0 0 0-1-1 1.13 1.13 0 0 1-1-1 1.133 1.133 0 0 0-1-1 1.13 1.13 0 0 1-1-1 1.133 1.133 0 0 0-1-1 1.13 1.13 0 0 1-1-1 1.133 1.133 0 0 0-1-1 1.13 1.13 0 0 1-1-1 1.133 1.133 0 0 0-1-1 1.13 1.13 0 0 1-1-1 1.133 1.133 0 0 0-1-1 1.13 1.13 0 0 1-1-1 1.133 1.133 0 0 0-1-1 1.13 1.13 0 0 1-1-1 1.133 1.133 0 0 0-1-1 1.13 1.13 0 0 1-1-1 1.133 1.133 0 0 0-1-1 1.13 1.13 0 0 1-1-1 1.133 1.133 0 0 0-1-1 1.13 1.13 0 0 1-1-1 1.133 1.133 0 0 0-1-1 1.13 1.13 0 0 1-1-1 1.133 1.133 0 0 0-1-1 1.13 1.13 0 0 1-1-1 1.133 1.133 0 0 0-1-1 1.13 1.13 0 0 1-1-1 1.133 1.133 0 0 0-1-1 1.13 1.13 0 0 1-1-1 1.133 1.133 0 0 0-1-1 1.13 1.13 0 0 1-1-1 1.133 1.133 0 0 0-1-1 1.13 1.13 0 0 1-1-1 1.133 1.133 0 0 0-1-1 1.13 1.13 0 0 1-1-1 1.133 1.133 0 0 0-1-1 1.13 1.13 0 0 1-1-1 1.133 1.133 0 0 0-1-1 1.13 1.13 0 0 1-1-1 1.133 1.133 0 0 0-1-1 1.13 1.13 0 0 1-1-1 1.133 1.133 0 0 0-1-1 1.13 1.13 0 0 1-1-1 1.133 1.133 0 0 0-1-1 1.13 1.13 0 0 1-1-1 1.133 1.133 0 0 0-1-1 1.13 1.13 0 0 1-1-1 1.133 1.133 0 0 0-1-1 1.13 1.13 0 0 1-1-1 1.133 1.133 0 0 0-1-1 1.13 1.13 0 0 1-1-1 1.133 1.133 0 0 0-1-1 1.13 1.13 0 0 1-1-1 1.133 1.133 0 0 0-1-1 1.13 1.13 0 0 1-1-1 1.133 1.133 0 0 0-1-1 1.13 1.13 0 0 1-1-1 1.133 1.133 0 0 0-1-1 1.13 1.13 0 0 1-1-1 1.133 1.133 0 0 0-1-1 1.13 1.13 0 0 1-1-1 1.133 1.133 0 0 0-1-1 1.13 1.13 0 0 1-1-1 1.133 1.133 0 0 0-1-1 1.13 1.13 0 0 1-1-1 1.133 1.133 0 0 0-1-1 1.13 1.13 0 0 1-1-1 1.133 1.133 0 0 0-1-1 1.13 1.13 0 0 1-1-1 1.133 1.133 0 0 0-1-1 1.13 1.13 0 0 1-1-1 1.133 1.133 0 0 0-1-1 1.13 1.13 0 0 1-1-1 1.133 1.133 0 0 0-1-1 1.13 1.13 0 0 1-1-1 1.133 1.133 0 0 0-1-1 1.13 1.13 0 0 1-1-1 1.133 1.133 0 0 0-1-1 1.13 1.13 0 0 1-1-1 1.133 1.133 0 0 0-1-1 1.13 1.13 0 0 1-1-1 1.133 1.133 0 0 0-1-1 1.13 1.13 0 0 1-1-1 1.133 1.133 0 0 0-1-1 1.13 1.13 0 0 1-1-1 1.133 1.133 0 0 0-1-1 1.13 1.13 0 0 1-1-1c-.087-.608-.448-.912-1.183-.998-.583-.067-1.375-.472-1.762-.9-.9-.994-1.643-.986-2.273.023"/><path d="M47.907 126.4c-.303.486-.933.8-1.603.8-.911 0-1.104.175-1.104 1 0 .8-.2 1-1 1s-1 .2-1 1-.2 1-1 1-1 .2-1 1-.2 1-1 1-1 .2-1 1-.2 1-1 1-1 .2-1 1-.2 1-1 1-1 .2-1 1-.2 1-1 1-1 .2-1 1-.2 1-1 1-1 .2-1 1-.2 1-1 1c-1.83 0-1.299 6.797.577 7.393.453.143.823.523.823.843 0 .319.45.786 1 1.037.55.25 1 .7 1 1 0 .299.45.749 1 1 .55.25 1 .7 1 1 0 .299.45.749 1 1 .55.25 1 .7 1 1 0 .299.45.749 1 1 .55.25 1 .7 1 1 0 .299.45.749 1 1 .55.25 1 .7 1 1 0 .299.45.749 1 1 .55.25 1 .7 1 1 0 .299.45.749 1 1 .55.25 1 .7 1 1 0 .299.45.749 1 1 .55.25 1 .7 1 1 0 .299.45.749 1 1 .55.25 1 .7 1 1 0 .299.45.749 1 1 .55.25 1 .7 1 1 0 .299.45.749 1 1 .55.25 1 .7 1 1 0 .299.45.749 1 1 .55.25 1 .7 1 1 0 .299.45.749 1 1 .55.25 1 .7 1 1 0 .299.45.749 1 1 .55.25 1 .7 1 1 0 .299.45.749 1 1 .55.25 1 .7 1 1 0 .299.45.749 1 1 .55.25 1 .7 1 1 0 .299.45.749 1 1 .55.25 1 .7 1 1 0 .299.45.749 1 1 .55.25 1 .7 1 1 0 .299.45.749 1 1 .55.25 1 .7 1 1 0 .299.45.749 1 1 .55.25 1 .7 1 1 0 .299.45.749 1 1 .55.25 1 .7 1 1 0 .299.45.749 1 1 .55.25 1 .7 1 1 0 .299.45.749 1 1 .55.25 1 .7 1 1 0 .299.45.749 1 1 .55.25 1 .7 1 1 0 .299.45.749 1 1 .55.25 1 .7 1 1 0 .299.45.749 1 1 .55.25 1 .7 1 1 0 .299.45.749 1 1 .55.25 1 .7 1 1 0 .299.45.749 1 1 .55.25 1 .7 1 1 0 .299.45.749 1 1 .55.25 1 .7 1 1 0 .299.45.749 1 1 .55.25 1 .7 1 1 0 .299.45.749 1 1 .55.25 1 .7 1 1 0 .299.45.749 1 1 .55.25 1 .7 1 1 0 .299.45.749 1 1 .55.25 1 .7 1 1 0 .299.45.749 1 1 .55.25 1 .7 1 1 0 .299.45.749 1 1 .55.25 1 .7 1 1 0 .299.45.749 1 1 .55.25 1 .7 1 1 0 .299.45.749 1 1 .55.25 1 .7 1 1 0 .299.45.749 1 1 .55.25 1 .7 1 1 0 .299.45.749 1 1 .55.25 1 .7 1 1 0 .299.45.749 1 1 .55.25 1 .7 1 1 0 .299.45.749 1 1 .55.25 1 .7 1 1 0 .299.45.749 1 1 .55.25 1 .7 1 1 0 .299.45.749 1 1 .55.25 1 .7 1 1 0 .299.45.749 1 1 .55.25 1 .7 1 1 0 .299.45.749 1 1 .55.25 1 .7 1 1 0 .299.45.749 1 1 .55.25 1 .7 1 1 0 .299.45.749 1 1 .55.25 1 .7 1 1 0 .299.45.749 1 1 .55.25 1 .7 1 1 0 .299.45.749 1 1 .55.25 1 .7 1 1 0 .299.45.749 1 1 .55.25 1 .7 1 1 0 .299.45.749 1 1 .55.25 1 .7 1 1 0 .299.45.749 1 1 .55.25 1 .7 1 1 0 .299.45.749 1 1 .55.25 1 .7 1 1 0 .299.45.749 1 1 .55.25 1 .7 1 1 0 .299.45.749 1 1 .55.25 1 .7 1 1 0 .299.45.749 1 1 .55.25 1 .7 1 1 0 .299.45.749 1 1 .55.25 1 .7 1 1 0 .299.45.749 1 1 .55.25 1 .7 1 1 0 .299.45.749 1 1 .55.25 1 .7 1 1 0 .299.45.749 1 1 .55.25 1 .7 1 1 0 .299.45.749 1 1 .55.25 1 .7 1 1 0 .299.45.749 1 1 .55.25 1 .7 1 1 0 .299.45.749 1 1 .55.25 1 .7 1 1 0 .299.45.749 1 1 .55.25 1 .7 1 1 0 .299.45.749 1 1 .55.25 1 .7 1 1 0 .299.45.749 1 1 .55.25 1 .7 1 1 0 .299.45.749 1 1 .55.25 1 .7 1 1 0 .299.45.749 1 1 .55.25 1 .7 1 1 0 .299.45.749 1 1 .55.25 1 .7 1 1 0 .299.45.749 1 1 .55.25 1 .7 1 1 0 .299.45.749 1 1 .55.25 1 .7 1 1 0 .299.45.749 1 1 .55.25 1 .7 1 1 0 .299.45.749 1 1 .55.25 1 .7 1 1 0 .299.45.749 1 1 .55.25 1 .7 1 1 0 .299.45.749 1 1 .55.25 1 .7 1 1 0 .299.45.749 1 1 .55.25 1 .7 1 1 0 .299.45.749 1 1 .55.25 1 .7 1 1 0 .299.45.749 1 1 .55.25 1 .7 1 1 0 .299.45.749 1 1 .55.25 1 .7 1 1 0 .299.45.749 1 1 .55.25 1 .7 1 1 0 .299.45.749 1 1 .55.25 1 .7 1 1 0 .299.45.749 1 1 .55.25 1 .7 1 1 0 .299.45.749 1 1 .55.25 1 .69 1 .977 0 .676 1.275 1.35 2.554 1.35.806 0 17.967-16.961 86.027-85.021l85.019-85.02v-2.147c0-2.633-.274-3.412-1.199-3.412-.428 0-.815-.401-.965-1-.156-.621-.535-1-1-1-.466 0-.844-.379-1-1-.156-.621-.535-1-1-1-.466 0-.844-.379-1-1-.156-.621-.535-1-1-1-.466 0-.844-.379-1-1-.156-.621-.535-1-1-1-.466 0-.844-.379-1-1-.156-.621-.535-1-1-1-.466 0-.844-.379-1-1-.184-.731-.519-1-1.244-1-.791 0-.992-.202-.992-1 0-.714-.216-1-.757-1-.473 0-.85-.374-1.007-1-.178-.708-.523-1-1.182-1-.511 0-1.256-.36-1.654-.8-.398-.44-.965-.8-1.259-.8-.294 0-.759.36-1.034.8-.303.486-.933.8-1.603.8-.911 0-1.104.175-1.104 1 0 .8-.2 1-1 1s-1 .2-1 1-.2 1-1 1-1 .2-1 1-.2 1-1 1-1 .2-1 1-.2 1-1 1-1 .2-1 1-.2 1-1 1-1 .2-1 1-.2 1-1 1-1 .2-1 1-.2 1-1 1-1 .2-1 1-.2 1-1 1-1 .2-1 1-.2 1-1 1-1 .2-1 1-.2 1-1 1-1 .2-1 1-.2 1-1 1-1 .2-1 1-.2 1-1 1-1 .2-1 1-.2 1-1 1-1 .2-1 1-.2 1-1 1-1 .2-1 1-.2 1-1 1-1 .2-1 1-.2 1-1 1-1 .2-1 1-.2 1-1 1-1 .2-1 1-.2 1-1 1-1 .2-1 1-.2 1-1 1-1 .2-1 1-.2 1-1 1-1 .2-1 1-.2 1-1 1-1 .2-1 1-.2 1-1 1-1 .2-1 1-.2 1-1 1-1 .2-1 1-.2 1-1 1-1 .2-1 1-.2 1-1 1-1 .2-1 1-.2 1-1 1-1 .2-1 1-.2 1-1 1-1 .2-1 1-.2 1-1 1-1 .2-1 1-.2 1-1 1-1 .2-1 1-.2 1-1 1-1 .2-1 1-.2 1-1 1-1 .2-1 1-.2 1-1 1-1 .2-1 1-.2 1-1 1-1 .2-1 1-.2 1-1 1-1 .2-1 1-.2 1-1 1-1 .2-1 1-.2 1-1 1-1 .2-1 1-.2 1-1 1-1 .2-1 1-.2 1-1 1-1 .2-1 1-.2 1-1 1-1 .2-1 1-.2 1-1 1-1 .2-1 1-.2 1-1 1-1 .2-1 1-.2 1-1 1-1 .2-1 1-.2 1-1 1-1 .2-1 1-.2 1-1 1-1 .2-1 1-.2 1-1 1-1 .2-1 1-.2 1-1 1-1 .2-1 1-.2 1-1 1-1 .2-1 1-.2 1-1 1-1 .2-1 1-.2 1-1 1-1 .2-1 1-.2 1-1 1-1 .2-1 1-.2 1-1 1-1 .2-1 1-.2 1-1 1-1 .2-1 1-.2 1-1 1-1 .2-1 1-.2 1-1 1-1 .2-1 1-.2 1-1 1-1 .2-1 1-.2 1-1 1-1 .2-1 1-.2 1-1 1-1 .2-1 1-.2 1-1 1-1 .2-1 1-.2 1-1 1-1 .2-1 1-.2 1-1 1-1 .2-1 1-.2 1-1 1-1 .2-1 1-.2 1-1 1-1 .2-1 1-.2 1-1 1-1 .2-1 1-.2 1-1 1-1 .2-1 1-.2 1-1 1-1 .2-1 1-.2 1-1 1-1 .2-1 1-.2 1-1 1-1 .2-1 1-.2 1-1 1-1 .2-1 1-.2 1-1 1-1 .2-1 1-.2 1-1 1-1 .2-1 1-.2 1-1 1-1 .2-1 1-.2 1-1 1-1 .2-1 1-.2 1-1 1-1 .2-1 1c0 1.375-1.878 1.465-2.072.1-.081-.57-.449-.946-1.003-1.025a1.13 1.13 0 0 1-1-1 1.133 1.133 0 0 0-1-1 1.13 1.13 0 0 1-1-1 1.133 1.133 0 0 0-1-1 1.13 1.13 0 0 1-1-1 1.133 1.133 0 0 0-1-1 1.13 1.13 0 0 1-1-1 1.133 1.133 0 0 0-1-1 1.13 1.13 0 0 1-1-1 1.133 1.133 0 0 0-1-1 1.13 1.13 0 0 1-1-1 1.133 1.133 0 0 0-1-1 1.13 1.13 0 0 1-1-1 1.133 1.133 0 0 0-1-1 1.13 1.13 0 0 1-1-1 1.133 1.133 0 0 0-1-1 1.13 1.13 0 0 1-1-1 1.133 1.133 0 0 0-1-1 1.13 1.13 0 0 1-1-1 1.133 1.133 0 0 0-1-1 1.13 1.13 0 0 1-1-1 1.133 1.133 0 0 0-1-1 1.13 1.13 0 0 1-1-1 1.133 1.133 0 0 0-1-1 1.13 1.13 0 0 1-1-1 1.133 1.133 0 0 0-1-1 1.13 1.13 0 0 1-1-1 1.133 1.133 0 0 0-1-1 1.13 1.13 0 0 1-1-1 1.133 1.133 0 0 0-1-1 1.13 1.13 0 0 1-1-1 1.133 1.133 0 0 0-1-1 1.13 1.13 0 0 1-1-1 1.133 1.133 0 0 0-1-1 1.13 1.13 0 0 1-1-1 1.133 1.133 0 0 0-1-1 1.13 1.13 0 0 1-1-1 1.133 1.133 0 0 0-1-1 1.13 1.13 0 0 1-1-1 1.133 1.133 0 0 0-1-1 1.13 1.13 0 0 1-1-1 1.133 1.133 0 0 0-1-1 1.13 1.13 0 0 1-1-1c-.088-.618-.448-.912-1.225-1.002-.864-.099-1.1-.335-1.1-1.1 0-.695-.221-.973-.772-.973-.496 0-.818-.322-.9-.9-.081-.57-.449-.946-1.003-1.025a1.13 1.13 0 0 1-1-1 1.133 1.133 0 0 0-1-1 1.13 1.13 0 0 1-1-1 1.133 1.133 0 0 0-1-1 1.13 1.13 0 0 1-1-1 1.133 1.133 0 0 0-1-1 1.13 1.13 0 0 1-1-1 1.133 1.133 0 0 0-1-1 1.13 1.13 0 0 1-1-1 1.133 1.133 0 0 0-1-1 1.13 1.13 0 0 1-1-1 1.133 1.133 0 0 0-1-1 1.13 1.13 0 0 1-1-1 1.133 1.133 0 0 0-1-1 1.13 1.13 0 0 1-1-1 1.133 1.133 0 0 0-1-1 1.13 1.13 0 0 1-1-1 1.133 1.133 0 0 0-1-1 1.13 1.13 0 0 1-1-1 1.133 1.133 0 0 0-1-1 1.13 1.13 0 0 1-1-1 1.133 1.133 0 0 0-1-1 1.13 1.13 0 0 1-1-1 1.133 1.133 0 0 0-1-1 1.13 1.13 0 0 1-1-1 1.133 1.133 0 0 0-1-1 1.13 1.13 0 0 1-1-1 1.133 1.133 0 0 0-1-1 1.13 1.13 0 0 1-1-1 1.133 1.133 0 0 0-1-1 1.13 1.13 0 0 1-1-1 1.133 1.133 0 0 0-1-1 1.13 1.13 0 0 1-1-1 1.133 1.133 0 0 0-1-1 1.13 1.13 0 0 1-1-1 1.133 1.133 0 0 0-1-1 1.13 1.13 0 0 1-1-1 1.133 1.133 0 0 0-1-1 1.13 1.13 0 0 1-1-1 1.133 1.133 0 0 0-1-1 1.13 1.13 0 0 1-1-1 1.133 1.133 0 0 0-1-1 1.13 1.13 0 0 1-1-1 1.133 1.133 0 0 0-1-1 1.13 1.13 0 0 1-1-1 1.133 1.133 0 0 0-1-1 1.13 1.13 0 0 1-1-1 1.133 1.133 0 0 0-1-1 1.13 1.13 0 0 1-1-1 1.133 1.133 0 0 0-1-1 1.13 1.13 0 0 1-1-1 1.133 1.133 0 0 0-1-1 1.13 1.13 0 0 1-1-1 1.133 1.133 0 0 0-1-1 1.13 1.13 0 0 1-1-1 1.133 1.133 0 0 0-1-1 1.13 1.13 0 0 1-1-1 1.133 1.133 0 0 0-1-1 1.13 1.13 0 0 1-1-1 1.133 1.133 0 0 0-1-1 1.13 1.13 0 0 1-1-1 1.133 1.133 0 0 0-1-1 1.13 1.13 0 0 1-1-1 1.133 1.133 0 0 0-1-1 1.13 1.13 0 0 1-1-1 1.133 1.133 0 0 0-1-1 1.13 1.13 0 0 1-1-1 1.133 1.133 0 0 0-1-1 1.13 1.13 0 0 1-1-1 1.133 1.133 0 0 0-1-1 1.13 1.13 0 0 1-1-1 1.133 1.133 0 0 0-1-1 1.13 1.13 0 0 1-1-1 1.133 1.133 0 0 0-1-1 1.13 1.13 0 0 1-1-1 1.133 1.133 0 0 0-1-1 1.13 1.13 0 0 1-1-1 1.133 1.133 0 0 0-1-1 1.13 1.13 0 0 1-1-1 1.133 1.133 0 0 0-1-1 1.13 1.13 0 0 1-1-1 1.133 1.133 0 0 0-1-1 1.13 1.13 0 0 1-1-1 1.133 1.133 0 0 0-1-1 1.13 1.13 0 0 1-1-1 1.133 1.133 0 0 0-1-1 1.13 1.13 0 0 1-1-1 1.133 1.133 0 0 0-1-1 1.13 1.13 0 0 1-1-1 1.133 1.133 0 0 0-1-1 1.13 1.13 0 0 1-1-1 1.133 1.133 0 0 0-1-1 1.13 1.13 0 0 1-1-1 1.133 1.133 0 0 0-1-1 1.13 1.13 0 0 1-1-1 1.133 1.133 0 0 0-1-1 1.13 1.13 0 0 1-1-1c-.087-.608-.448-.912-1.183-.998-.583-.067-1.375-.472-1.762-.9-.9-.994-1.643-.986-2.273.023" fill="#aad139"/></g></svg>