<svg width="400" height="399.333" xmlns="http://www.w3.org/2000/svg" display="block"><path d="M211.525.852c-.655 1.38-1.735 5.111-1.735 5.993 0 .417-.163 1.07-.363 1.452-.492.939-1.635 6.149-1.635 7.45 0 .576-.162 1.359-.359 1.741-.42.81-1.162 6.042-1.742 12.282-1.075 11.56-.048 34.671 1.744 39.28.197.505.359 1.314.362 1.798.003.484.375 2.319.827 4.077.452 1.758.971 3.786 1.154 4.507.663 2.612 1.862 2.892 3.592.838 1.318-1.564 5.617-6.157 10.069-10.757 2.562-2.646 5.529-5.799 6.593-7.005 1.065-1.207 3.554-3.871 5.532-5.921 3.51-3.638 8.981-9.53 11.789-12.697.769-.868 2.769-2.988 4.444-4.712 1.676-1.724 3.545-3.787 4.154-4.586 1.254-1.644 1.616-1.489 3.21 1.372.428.769.87 1.489.981 1.598.411.407 2.795 5.46 2.795 5.924 0 .264.159.793.353 1.175 1.672 3.287 2.179 6.348 2.168 13.081-.01 5.544-.717 11.389-1.378 11.389-.189 0-.344.449-.344.999 0 .549-.18.999-.399.999-.22 0-.4.304-.4.675 0 .761-2.434 5.846-2.897 6.051-.165.074-.3.388-.3.7 0 .311-.167.566-.372.566s-.497.391-.649.87c-.152.478-.704 1.33-1.226 1.894-.522.563-.95 1.124-.95 1.247 0 .62-7.197 8.174-9.502 9.975-.704.549-1.281 1.218-1.283 1.486-.004.527 4.091 3.709 4.774 3.709.23 0 .417.139.417.308 0 .17.629.648 1.399 1.062.769.415 1.398.864 1.398.999 0 .136.63.585 1.399.999.769.415 1.398.884 1.398 1.044 0 .159.315.395.7.524.895.301 1.989 1.022 3.271 2.157.559.494 1.228.899 1.487.899.258 0 .53.135.603.299.166.375 2.989 2.498 3.32 2.498.134 0 .461.191.726.423 1.246 1.094 12.352 8.768 12.689 8.768.209 0 .381.139.381.308 0 .17.63.648 1.399 1.062.769.415 1.398.905 1.398 1.09 0 .185.255.337.567.337.311 0 .626.135.699.3.193.435 3.882 2.897 4.341 2.897.213 0 .387.151.387.336 0 .186.63.676 1.399 1.09.769.415 1.399.892 1.399 1.062 0 .17.187.309.416.309.229 0 .634.185.899.412.847.723 13.053 9.131 15.645 10.777.519.329 2.061 1.363 3.426 2.297 1.365.935 2.563 1.699 2.663 1.699.542 0 2.881 2.145 2.685 2.462-.874 1.414-1.747 19.287-.979 20.055.231.231.42 1.172.42 2.092 0 1.849 1.126 5.76 1.659 5.76.186 0 .339.274.339.608 0 .334.413 1.278.918 2.098.505.819 1.719 3.109 2.697 5.087.979 1.978 1.914 3.656 2.079 3.729.165.073.3.374.3.667 0 .499 1.154 2.951 1.598 3.395.11.111 1.458 2.718 2.997 5.795 1.538 3.077 2.892 5.684 3.008 5.794.116.11.561 1.009.988 1.998.427.989.872 1.888.988 1.998.203.193 3.54 6.622 7.777 14.985 1.113 2.198 2.159 4.056 2.324 4.129.165.074.3.374.3.667 0 .499 1.154 2.951 1.598 3.396.11.11 1.908 3.616 3.996 7.792s3.886 7.683 3.996 7.792c.11.11 1.189 2.178 2.398 4.596 1.208 2.417 2.287 4.485 2.397 4.595.11.11 1.279 2.358 2.598 4.995 1.318 2.638 2.496 4.885 2.618 4.995.342.31 1.577 3.069 1.577 3.524 0 .223.135.466.3.539.165.073.831 1.212 1.481 2.531.65 1.318 1.297 2.487 1.437 2.597 1.285 1.005.567 2.867-2.22 5.762-.44.457-1.428 1.641-2.196 2.63-.768.989-1.757 2.191-2.197 2.672-.44.481-1.25 1.427-1.799 2.103a87.771 87.771 0 0 1-1.998 2.351 187.76 187.76 0 0 0-2.656 3.092 233.614 233.614 0 0 1-2.535 2.968c-.484.55-1.537 1.799-2.34 2.776a89.962 89.962 0 0 1-2.459 2.869c-.55.6-1.343 1.559-1.763 2.13-1.905 2.591-3.832 3.906-3.832 2.615 0-.22-.257-.399-.571-.399-.314 0-.808-.228-1.099-.506-.29-.278-1.427-.972-2.526-1.543-3.205-1.665-4.78-2.532-4.994-2.751-.11-.112-.92-.561-1.799-.999-.879-.437-1.658-.93-1.731-1.095-.074-.164-.373-.299-.666-.299-.294 0-.593-.135-.666-.3-.074-.165-.673-.579-1.332-.921-2.975-1.543-5.612-2.986-5.795-3.172-.11-.111-.739-.499-1.398-.862-.66-.362-2.188-1.222-3.397-1.911a92.008 92.008 0 0 0-3.996-2.139c-.989-.487-1.888-.994-1.998-1.126-1.23-1.484-6.393-3.195-6.393-2.118 0 .73 1.235 2.958 1.641 2.958.148 0 .383.45.521.999.138.55.427.999.642.999.216 0 .392.195.392.432 0 .238.601 1.361 1.335 2.498.734 1.136 2.11 3.324 3.058 4.862.947 1.539 1.83 2.888 1.962 2.997.131.11.582.875 1.001 1.699.419.824.893 1.498 1.052 1.498.16 0 .399.315.531.7.253.733.493 1.138 3.782 6.387l2.036 3.249-2.084.211c-1.146.117-4.128.311-6.627.433-2.5.122-4.666.297-4.815.389-.149.092-2.689-.088-5.646-.401-2.956-.313-5.585-.571-5.842-.573-.412-.005-.903-1.492-1.585-4.8a13.82 13.82 0 0 0-.513-1.798c-.74-1.927-1.631-4.956-1.631-5.549 0-.355-.18-.645-.399-.645-.22 0-.4-.338-.4-.751 0-.661-.401-1.85-1.568-4.644-.184-.439-.65-1.608-1.036-2.597-.909-2.33-1.462-3.624-2.902-6.794-.65-1.428-1.585-3.496-2.078-4.595a288.295 288.295 0 0 0-2.25-4.837c-.745-1.562-1.355-3.03-1.355-3.263 0-.234-.135-.485-.299-.558-.165-.073-1.379-2.273-2.698-4.889-1.414-2.805-2.684-4.832-3.097-4.942-.384-.102-.699-.344-.699-.539 0-.194-.249-.353-.554-.353-.304 0-1.068-.268-1.698-.596-.629-.329-1.459-.599-1.844-.6-.384-.001-.699-.182-.699-.402 0-.22-.349-.4-.776-.4-.426 0-.878-.166-1.003-.368-.126-.203-.798-.494-1.495-.648-.697-.153-1.85-.605-2.563-1.006-.713-.4-1.939-.848-2.724-.995-.786-.148-1.429-.407-1.429-.576 0-.17-1.078-.644-2.394-1.055-1.317-.41-2.396-.881-2.398-1.046-.002-.165-.352-.3-.779-.3-.427 0-.878-.166-1.004-.368-.125-.203-.757-.486-1.405-.628-.647-.142-1.905-.61-2.795-1.04-.889-.43-2.156-.889-2.814-1.021-.658-.132-1.196-.397-1.196-.589 0-.192-.349-.35-.776-.35-.427 0-.878-.166-1.004-.368-.125-.203-.761-.486-1.413-.63-.652-.143-2.043-.695-3.092-1.227-1.049-.533-2.087-.969-2.307-.971-.22-.001-.759-.541-1.199-1.199-.439-.658-.934-1.197-1.098-1.198-.165 0-.3-.198-.3-.439s-.405-1.004-.899-1.697c-1.23-1.721-2.439-3.907-4.126-7.455l-2.183-4.596c-.418-.879-.875-2.094-1.016-2.701-.141-.606-.416-1.201-.612-1.322-.195-.121-.355-.659-.355-1.195 0-.537-.163-.976-.362-.976-.199 0-.486-.898-.637-1.997-.151-1.099-.438-2.098-.637-2.222-.199-.123-.362-.716-.362-1.319 0-.602-.163-1.266-.362-1.475-.336-.353-.636-1.978-1.691-9.17-.226-1.539-.496-5.18-.599-8.092-.104-2.912-.314-5.292-.467-5.289-1.027.023-1.482 1.146-2.102 5.189l-.951 6.194c-2.293 14.923-2.031 35.588.585 46.153.19.77.66 2.748 1.043 4.396.383 1.648.843 3.168 1.022 3.377.179.208.325.698.325 1.088 0 1.425 4.923 12.711 5.693 13.051.165.073.301.388.301.699 0 .312.18.566.4.566.22 0 .399.257.399.571 0 .314.237.809.527 1.099.289.29.873 1.067 1.298 1.727a39.049 39.049 0 0 0 1.372 1.986c.774 1.016 8.373 8.617 9.403 9.405 1.915 1.466 7.475 4.801 8.381 5.029.549.137.997.381.997.541 0 .161.989.628 2.198 1.039 1.209.411 2.198.844 2.199.964 0 .119.404.697.899 1.283a42.883 42.883 0 0 1 1.697 2.181c.44.612 1.102 1.424 1.472 1.804.37.379 1 1.196 1.399 1.815.747 1.158 1.22 1.742 3.31 4.082.666.747 1.212 1.477 1.212 1.623 0 .146.316.614.703 1.04.387.426 1.331 1.583 2.098 2.571a590.805 590.805 0 0 0 3.761 4.797c.78.989 1.735 2.158 2.123 2.597.388.44 1.034 1.308 1.434 1.929.401.621 1.064 1.52 1.475 1.998 1.501 1.749 2.21 2.625 2.991 3.703.44.606 1.076 1.384 1.414 1.731.338.346 1.144 1.348 1.792 2.228 1.414 1.921 2.099 2.776 3.288 4.106.494.553.899 1.125.899 1.271 0 .146.316.615.703 1.041.387.426 1.326 1.584 2.088 2.573.761.989 1.48 1.888 1.597 1.998.116.109.744.919 1.394 1.798.65.879 1.368 1.791 1.596 2.027.228.236.864 1.014 1.413 1.729 3.318 4.314 4.228 5.482 4.59 5.89.223.25.765.962 1.204 1.581.44.619 1.069 1.409 1.399 1.756.33.346 1.129 1.343 1.777 2.215.648.872 1.278 1.675 1.4 1.785.122.11 1.03 1.278 2.018 2.597.988 1.319 1.896 2.488 2.018 2.598.122.109.742.919 1.377 1.798s1.345 1.778 1.577 1.998c.232.22.959 1.119 1.615 1.998 1.53 2.053 2.257 2.96 3.015 3.768.336.358 1.221 1.5 1.966 2.537.745 1.038 1.504 1.887 1.686 1.887.183 0 .332.201.332.446 0 .246.495 1.03 1.099 1.741 1.206 1.421 1.626 1.944 3.693 4.607.767.988 1.711 2.146 2.098 2.572.386.426.703.92.703 1.099 0 .178.359.324.799.324.439 0 .799-.18.799-.4 0-.22.257-.399.571-.399.314 0 .808-.23 1.099-.51.29-.28 1.876-1.482 3.523-2.672 3.32-2.399 3.65-2.656 4.916-3.823a19.992 19.992 0 0 1 1.756-1.42c2.135-1.485 5.94-4.973 11.312-10.372 6-6.03 7.23-7.362 9.587-10.384.767-.984 1.711-2.137 2.098-2.563.386-.426.703-.912.703-1.081 0-.168.449-.755.999-1.305.549-.549.999-1.116.999-1.259 0-.143.539-.942 1.198-1.774.66-.833 1.199-1.698 1.199-1.923 0-.224.153-.468.339-.541.466-.184 3.657-5.306 3.657-5.871 0-.251.18-.456.4-.456.22 0 .399-.255.399-.567 0-.311.135-.626.3-.699.165-.073.929-1.392 1.698-2.93.77-1.539 1.534-2.857 1.699-2.931.165-.073.299-.478.299-.899 0-.421.18-.766.4-.766.22 0 .404-.224.409-.499.004-.275.54-1.579 1.189-2.897.65-1.319 1.185-2.713 1.19-3.097.005-.385.145-.699.311-.699.393 0 1.208-1.856 1.537-3.5.142-.713.416-1.296.609-1.296.192 0 .349-.349.349-.775 0-.427.16-.874.355-.995.195-.12.477-.872.626-1.671.15-.799.44-1.79.645-2.202a717.1 717.1 0 0 1 .764-1.532c.216-.43.509-1.513.652-2.406.143-.894.416-1.722.607-1.84.191-.118.347-.643.347-1.166 0-.524.168-1.055.372-1.182.204-.126.495-1.215.645-2.421.151-1.205.433-2.191.628-2.191.194 0 .353-.529.353-1.176 0-.646.166-1.277.369-1.402.202-.125.493-1.397.646-2.827.153-1.429.437-2.696.631-2.816.194-.12.352-.736.352-1.37 0-.633.159-1.249.353-1.369.193-.12.481-1.614.639-3.32.158-1.707.429-3.283.602-3.503.355-.45.599-1.918 1.23-7.392.241-2.088.603-4.109.805-4.49.202-.382.367-1.56.367-2.618 0-1.058.168-2.094.372-2.303.205-.209.5-2.767.657-5.686.156-2.918.438-5.401.627-5.518.188-.116.342-1.574.342-3.238 0-1.665.182-3.678.403-4.472.379-1.358.749-7.654 1.564-26.62.749-17.416.51-161.12-.268-161.374-.385-.126-1.682-.597-2.882-1.046-1.2-.449-2.504-.817-2.897-.817-.393 0-.715-.18-.715-.4 0-.219-.439-.399-.975-.399-.537 0-1.08-.17-1.208-.377-.128-.207-1.038-.497-2.022-.644-.984-.148-1.789-.428-1.789-.623s-.449-.354-.999-.354c-.549 0-.999-.157-.999-.349 0-.191-.727-.464-1.616-.607-.888-.142-1.967-.434-2.397-.65-.43-.216-1.103-.549-1.494-.741-.392-.192-1.33-.484-2.085-.65-.755-.166-1.648-.438-1.985-.604-1.203-.593-2.643-1.137-4.808-1.814-1.209-.379-2.558-.83-2.997-1.002a79.627 79.627 0 0 0-2.798-.98c-1.099-.366-2.267-.793-2.597-.949-.33-.156-1.678-.615-2.997-1.02s-2.757-.877-3.197-1.049a87.536 87.536 0 0 0-2.797-.985c-1.099-.37-2.358-.826-2.797-1.014-.44-.187-3.047-1.079-5.794-1.98-2.748-.902-5.355-1.792-5.795-1.978-2.267-.957-4.296-1.61-5.003-1.61-.435 0-.791-.16-.791-.354 0-.195-.494-.452-1.099-.571-1.65-.325-4.668-1.23-4.895-1.469-.338-.356-4.154-1.606-4.895-1.604-.385.001-.699-.158-.699-.352 0-.195-.495-.444-1.099-.554-.984-.179-2.253-.587-4.695-1.512-3.428-1.299-4.31-1.576-5.004-1.576-.435 0-.791-.16-.791-.354 0-.195-.494-.444-1.099-.554-.984-.179-2.253-.587-4.695-1.512-3.428-1.299-4.309-1.576-5.003-1.576-.435 0-.791-.18-.791-.4 0-.22-.439-.399-.976-.399-.536 0-1.073-.16-1.194-.355-.12-.195-.872-.477-1.671-.626-.799-.15-1.745-.427-2.102-.615-1.298-.683-4.082-1.601-4.854-1.601-.436 0-.792-.14-.792-.311 0-.171-1.123-.631-2.497-1.022-2.345-.667-3.662-1.146-5.108-1.86-.337-.166-1.236-.435-1.998-.599-.762-.163-1.565-.423-1.785-.577-.22-.154-1.479-.608-2.797-1.009-2.458-.746-3.929-1.278-5.008-1.811-.337-.166-1.236-.435-1.998-.599-.762-.163-1.566-.426-1.786-.584-.219-.159-1.478-.601-2.797-.984-1.318-.382-2.757-.847-3.197-1.033-.439-.186-1.698-.641-2.797-1.011a75.642 75.642 0 0 1-2.797-.993c-2.691-1.078-4.309-1.593-5.003-1.593-.435 0-.791-.16-.791-.354 0-.195-.495-.452-1.099-.571-1.701-.335-4.673-1.234-4.895-1.481-.11-.122-1.279-.567-2.598-.988-1.318-.422-2.568-.909-2.777-1.084-.209-.175-.782-.317-1.275-.317-.492 0-.994-.16-1.114-.355-.121-.195-.873-.477-1.672-.626-.798-.15-1.744-.427-2.102-.615-1.297-.683-4.081-1.601-4.854-1.601-.435 0-.791-.18-.791-.4 0-.22-.439-.399-.975-.399-.537 0-1.074-.16-1.195-.355-.12-.195-.895-.48-1.722-.635-.826-.154-1.721-.461-1.987-.681-1.176-.972-5.095-.884-5.573.125M159.84 8.791c0 .22-.356.4-.791.4-.692 0-1.777.342-5.003 1.579-.44.169-1.878.635-3.197 1.035-1.319.401-2.577.843-2.797.982-.22.139-1.524.601-2.897 1.026-1.374.425-2.498.884-2.498 1.021 0 .137-.727.365-1.616.507-.888.142-1.922.414-2.297.604-1.475.747-2.74 1.203-4.066 1.465-.762.151-1.706.431-2.097.623l-1.425.697c-.392.192-1.33.485-2.085.651-.755.165-1.648.437-1.985.603-1.065.526-2.537 1.06-5.008 1.819-1.319.405-2.667.865-2.997 1.022-.33.157-1.199.508-1.931.78-1.355.504-1.594 2.555-.436 3.748.203.208.369.703.369 1.099 0 .395.18.719.4.719.219 0 .399.287.399.639 0 .351.27 1.25.6 1.998.329.747.877 2.033 1.218 2.857.34.825.79 1.811.999 2.193.209.381.38.966.38 1.298 0 .333.18.605.4.605.219 0 .399.289.399.642 0 .354.553 1.837 1.228 3.297l1.969 4.253c1.226 2.643 3.056 6.71 3.641 8.092.303.714.686 1.299.852 1.299.166 0 .302.178.302.397 0 .682 1.372 3.599 1.693 3.599.168 0 .305.178.305.397 0 .682 1.372 3.599 1.693 3.599.168 0 .305.178.305.397 0 .682 1.372 3.599 1.693 3.599.168 0 .306.224.308.499.002.505.184.88 2.182 4.496a229.092 229.092 0 0 1 2.148 3.996c.573 1.099 1.137 2.088 1.252 2.197.115.11.567.92 1.005 1.799.437.879.887 1.688.999 1.798.21.206 1.258 2.09 2.336 4.196.337.659 1.209 2.134 1.938 3.277.728 1.143 1.324 2.267 1.324 2.498 0 .23.139.418.309.418.169 0 .66.675 1.09 1.499 3.802 7.283 5.857 9.48 7.48 7.992.796-.729 2.009-1.488 2.809-1.757.385-.129.7-.372.7-.541 0-.168.314-.416.699-.551.384-.135 1.958-.968 3.496-1.85 1.539-.882 3.607-2.007 4.596-2.499.989-.491 1.888-.984 1.998-1.094.432-.432 8.812-4.395 9.294-4.395.573 0 1.495-1.091 1.495-1.77 0-.345-.18-.628-.4-.628-.219 0-.399-.356-.399-.791 0-.758-.908-3.529-1.578-4.816-.175-.337-.454-1.231-.62-1.985-.166-.755-.437-1.648-.604-1.985-.856-1.736-2.393-6.462-2.393-7.36 0-.355-.144-.645-.321-.645-.176 0-.542-.944-.812-2.098-.871-3.717-.98-4.093-1.246-4.296-.284-.217-1.15-3.407-1.492-5.494-.117-.715-.373-1.299-.568-1.299-.196 0-.356-.389-.356-.864 0-.83-.957-4.463-1.614-6.129-.173-.44-.623-2.148-.999-3.796-.376-1.649-.821-3.357-.99-3.797-.168-.439-.618-2.237-1-3.996-.382-1.758-.828-3.556-.992-3.996-.374-1.005-1.237-5.112-1.491-7.095-.105-.826-.352-1.6-.549-1.722-.196-.121-.359-.795-.362-1.496-.003-.701-.27-2.264-.595-3.473-.324-1.209-.592-2.782-.594-3.496-.003-.715-.159-1.299-.347-1.299-.188 0-.463-1.298-.611-2.884-.256-2.762-1.023-4.708-1.853-4.708a.396.396 0 0 0-.391.399M69.131 40.035c-1.885.793-2.599 1.057-3.397 1.257-.439.11-2.777.909-5.195 1.776a2060.7 2060.7 0 0 1-4.995 1.787l-2.411.855c-.996.354-2.12.644-2.497.644-.377 0-.686.179-.686.399 0 .22-.356.4-.791.4-.703 0-2.664.63-5.003 1.607-.44.184-1.788.629-2.997.99-1.209.361-2.558.81-2.997.997-.44.187-1.698.639-2.797 1.006-1.099.366-2.268.798-2.598.96-.329.162-1.813.638-3.296 1.058-1.484.421-2.698.902-2.698 1.069 0 .168-.329.305-.732.305-.403 0-.867.133-1.03.297-.163.163-1.046.478-1.961.699-2.076.502-2.245 1.238-.685 2.986.666.746 1.211 1.466 1.211 1.599s.795 1.083 1.766 2.111c.971 1.028 2.005 2.205 2.297 2.616 3.453 4.843 24.83 26.674 32.143 32.823 1.573 1.323 6.348 5.54 7.983 7.05.733.676 1.801 1.576 2.375 1.998.573.422 1.627 1.307 2.343 1.967.715.659 1.649 1.468 2.076 1.798.427.33 1.33 1.049 2.007 1.598.677.55 1.923 1.539 2.768 2.198a186.49 186.49 0 0 1 3.001 2.398c1.801 1.475 3.465 2.777 6.576 5.146a423.664 423.664 0 0 1 2.797 2.139c.22.173 1.749 1.299 3.397 2.503 1.648 1.203 3.235 2.416 3.525 2.694.29.277.65.505.799.505.149 0 .794.45 1.432.999.639.549 1.268.999 1.399.999s.76.45 1.399.999c.638.549 1.359.999 1.602.999.242 0 .665.359.94.799.274.439.68.799.901.799.222 0 1.639.899 3.15 1.998 3.621 2.634 3.724 2.613 7.456-1.479 4.421-4.847 11.073-11.303 15.459-15.002 1.503-1.268 1.411-1.639-.999-4.056-1.154-1.156-3.177-3.32-4.496-4.807a256.812 256.812 0 0 0-3.996-4.407c-1.906-2.031-5.595-6.189-7.454-8.405-.735-.876-1.697-1.968-2.136-2.426-.44-.458-1.4-1.576-2.135-2.485a90.47 90.47 0 0 0-2.198-2.617 59.494 59.494 0 0 1-1.625-1.916c-.42-.523-1.281-1.581-1.914-2.35a144.817 144.817 0 0 1-1.929-2.398 349.315 349.315 0 0 0-2.083-2.626 89.724 89.724 0 0 1-2.102-2.73c-.787-1.085-1.492-1.957-3.021-3.737-.427-.497-.775-1.081-.775-1.299 0-.218-.135-.399-.3-.401-.165-.003-1.369-1.531-2.675-3.397-1.307-1.866-2.521-3.392-2.698-3.392-.177 0-.321-.192-.321-.426 0-.376-1.811-3.041-2.426-3.57-.127-.11-.572-.784-.987-1.498-.416-.715-.897-1.299-1.069-1.299-.172 0-.314-.242-.314-.537 0-.296-.439-1.049-.976-1.674a16.759 16.759 0 0 1-1.69-2.46c-.391-.728-.851-1.323-1.021-1.323-.17 0-.309-.159-.309-.354 0-.369-3.162-5.29-3.624-5.64-.145-.11-.39-.605-.544-1.099-.155-.495-.449-.899-.654-.899-.205 0-.372-.27-.372-.6 0-.329-.138-.599-.305-.599-.305 0-1.027-1.184-1.523-2.497-.145-.385-.422-.7-.617-.7-.194 0-.353-.197-.353-.438 0-1.945-2.327-3.155-4.395-2.284M0 135.584v28.491l1.499.507c.824.278 1.858.655 2.297.837.44.182 1.699.633 2.797 1.003 1.099.37 2.358.826 2.798 1.013.439.187 1.788.636 2.997.997 1.208.361 2.557.813 2.997 1.005 1.25.545 11.193 3.59 11.723 3.59.261 0 .788.165 1.169.366.382.202 1.773.661 3.092 1.022 1.318.36 3.636 1.025 5.15 1.477 1.514.452 3.451.916 4.305 1.031.854.114 1.649.363 1.767.553.117.191.607.349 1.089.352.481.004 1.595.265 2.474.582.879.317 2.183.584 2.897.593.714.01 1.299.179 1.299.376 0 .196.674.443 1.498.549 2.004.256 6.099 1.119 7.093 1.495 1.366.516 6.737 1.604 7.892 1.599.605-.003 1.099.157 1.099.354 0 .198.764.44 1.698.539 2.665.281 7.611 1.164 8.492 1.516 2.587 1.035 6.194.768 6.194-.459 0-.416.18-.756.399-.756a.4.4 0 0 0 .4-.397c0-.645 1.363-3.599 1.661-3.599.15 0 .392-.54.537-1.199.145-.659.411-1.199.591-1.199.181 0 .661-.808 1.067-1.797.407-.988.874-1.797 1.039-1.798.165-.001.3-.271.3-.601 0-.329.18-.599.399-.599.22 0 .4-.205.4-.456s.989-2.024 2.198-3.94c1.208-1.915 2.197-3.688 2.197-3.939 0-.251.142-.456.314-.456.172 0 .639-.551 1.036-1.224.88-1.489.596-3.172-.534-3.172-.423 0-.879-.18-1.015-.399-.136-.22-.551-.401-.923-.403-.372-.001-1.191-.271-1.82-.599-.63-.328-1.394-.597-1.699-.597-.304 0-.553-.18-.553-.399 0-.22-.315-.401-.7-.403-.384-.001-1.214-.271-1.843-.599-.63-.328-1.394-.597-1.699-.597-.304 0-.554-.172-.554-.381 0-.21-.629-.5-1.398-.644-.769-.145-1.399-.393-1.399-.553 0-.159-.989-.626-2.198-1.037-1.208-.411-2.197-.89-2.197-1.064 0-.174-.315-.323-.7-.33-.384-.007-1.048-.276-1.475-.599-.426-.323-1.101-.587-1.498-.587-.398 0-.723-.179-.723-.399 0-.22-.315-.406-.699-.413-.385-.007-1.049-.276-1.475-.599-.427-.323-1.101-.587-1.499-.587-.397 0-.723-.137-.723-.305 0-.321-2.916-1.693-3.599-1.693-.218 0-.397-.137-.397-.305 0-.321-2.916-1.693-3.599-1.693-.218 0-.397-.137-.397-.305 0-.321-2.916-1.693-3.599-1.693-.218 0-.397-.14-.397-.311 0-.172-.899-.661-1.998-1.087-1.098-.427-1.998-.916-1.998-1.087 0-.172-.269-.312-.599-.312-.33 0-.599-.18-.599-.399 0-.22-.225-.401-.5-.403-.275-.001-.949-.249-1.498-.55-.55-.302-1.809-.998-2.798-1.548a226.464 226.464 0 0 0-3.988-2.146c-1.204-.631-2.42-1.361-2.701-1.623-.282-.261-1.139-.702-1.906-.979-.767-.278-1.395-.607-1.395-.733s-.674-.582-1.498-1.015c-.824-.432-1.588-.879-1.698-.993-.11-.115-.919-.566-1.799-1.003-.879-.438-1.688-.886-1.798-.995-.404-.404-1.818-1.229-2.497-1.457-.385-.129-.7-.353-.7-.497 0-.144-.674-.617-1.498-1.052-.824-.434-1.736-1.014-2.027-1.289-.29-.275-.785-.501-1.099-.501-.313 0-.57-.179-.57-.399 0-.22-.18-.4-.399-.4-.219 0-1.619-.871-3.111-1.936-1.493-1.065-2.887-2.009-3.099-2.098-.676-.284-5.151-3.333-5.949-4.053-.424-.382-1.098-.799-1.499-.926s-.729-.399-.729-.604c0-.205-.269-.373-.599-.373-.33 0-.599-.141-.599-.313 0-.173-.585-.654-1.299-1.069-.714-.416-1.389-.868-1.499-1.007-.361-.454-3.066-2.406-3.334-2.406-.144 0-.262 12.821-.262 28.491m272.436 13.292c-.123.123.037 1.247.356 2.497.32 1.251.681 2.678.804 3.172.123.495.36.9.527.9.166 0 .405.512.53 1.139.425 2.123 4.931 11.648 5.512 11.648.195 0 .357.225.361.499.035 2.772 4.285 4.44 10.692 4.196 7.862-.299 9.535-1.235 7.071-3.957-.666-.736-1.475-1.717-1.798-2.18-.323-.464-1.306-1.66-2.185-2.658a110.99 110.99 0 0 1-2.593-3.053c-.547-.682-1.222-1.239-1.499-1.239-.277 0-.504-.176-.504-.392 0-.215-.449-.505-.999-.643-.549-.137-.999-.382-.999-.544 0-.161-.629-.632-1.398-1.046-.77-.414-1.399-.892-1.399-1.062 0-.17-.27-.309-.599-.309-.33 0-.6-.176-.6-.392 0-.215-.449-.505-.999-.643-.549-.137-.999-.382-.999-.544 0-.161-.629-.632-1.398-1.046-.77-.414-1.399-.892-1.399-1.062 0-.17-.27-.309-.599-.309-.33 0-.6-.176-.6-.392 0-.215-.449-.505-.999-.643-.549-.137-.999-.372-.999-.52 0-.69-2.806-1.899-3.288-1.417M.488 209.305c-.59.4-.227 22.33.375 22.703.185.114.35 2.219.368 4.679.032 4.366.523 12.16 1.006 15.96l.241 1.898h2.334c1.283 0 2.445-.179 2.581-.399.135-.22 1.09-.403 2.121-.408 1.031-.004 3.043-.194 4.472-.422 4.487-.717 7.289-1.13 10.587-1.564 1.756-.231 3.824-.595 4.595-.809.771-.214 2.076-.39 2.9-.391.824-.002 1.498-.157 1.498-.345 0-.188 1.248-.458 2.773-.6 1.525-.141 3.245-.437 3.822-.656.577-.22 1.638-.4 2.356-.4s1.44-.134 1.605-.299c.263-.263 2.027-.645 7.027-1.522.769-.134 1.668-.351 1.998-.481.599-.236 4.468-1.053 7.293-1.54.824-.142 1.498-.415 1.498-.606s.531-.347 1.18-.347c2.884 0 3.675-1.29 4.254-6.946.15-1.467.428-2.762.616-2.879.189-.116.344-.91.344-1.763 0-.853.165-1.654.368-1.779.202-.125.493-1.395.646-2.821.153-1.426.417-2.593.587-2.593.17 0 .404-.584.519-1.299.33-2.037 1.09-5.216 1.457-6.094.714-1.707 1.506-4.817 1.338-5.256-.128-.336-6.165-.518-22.426-.673-12.237-.118-23.149-.32-24.248-.449-1.098-.13-4.695-.412-7.992-.627-6.459-.422-12.39-.938-15.584-1.356-1.099-.144-2.228-.106-2.509.084m329.325 51.839c-.128.332-.063.827.143 1.099.207.272.7 1.393 1.097 2.492.396 1.099.877 2.169 1.067 2.378.191.209.348.608.348.888s.425 1.458.945 2.617c.52 1.16 1.281 2.918 1.691 3.907.773 1.865 1.7 2.882 2.294 2.514.306-.189 2.687-.387 13.951-1.162 3.79-.261 4.222-2.55.48-2.55-.319 0-.58-.142-.58-.315 0-.173-1.169-.668-2.598-1.099-1.428-.431-2.597-.919-2.597-1.084 0-.165-.281-.3-.624-.3-.939 0-4.634-1.847-5.77-2.885-.549-.502-2.136-1.811-3.525-2.91-1.39-1.098-3.098-2.488-3.796-3.089-1.435-1.235-2.187-1.384-2.526-.501M61.73 274.846c-.215.189-2.19 1.138-4.387 2.109-2.198.972-4.056 1.901-4.13 2.066a.556.556 0 0 1-.47.3c-.185 0-1.744.646-3.463 1.435-3.197 1.468-4.175 1.895-7.322 3.195-.989.408-1.888.838-1.998.955-.11.117-1.234.555-2.497.975-1.264.419-2.298.89-2.298 1.047 0 .157-.526.39-1.17.519-.643.128-2.036.615-3.096 1.081-4.06 1.785-4.569 1.981-5.138 1.981-.323 0-.586.18-.586.4 0 .22-.339.4-.754.4-.414 0-1.268.268-1.898.597-.629.328-1.459.598-1.844.599-.384.001-.699.182-.699.402 0 .22-.354.4-.786.4-.432 0-1.466.294-2.297.654-.832.361-1.962.831-2.511 1.046-.55.215-1.275.527-1.612.693-.337.166-1.203.432-1.925.591-1.676.368-1.887.977-1.296 3.752.264 1.24.58 2.841.703 3.557.122.716.382 1.401.577 1.522.196.121.356.548.356.95 0 .735 1.001 4.334 1.618 5.816.184.44.457 1.423.607 2.185.151.762.431 1.706.623 2.098l.697 1.425c.192.391.485 1.33.651 2.084.165.755.443 1.648.616 1.985.527 1.024 1.459 3.32 2.033 5.008.299.879.649 1.689.778 1.799.129.109.57 1.143.98 2.297.41 1.154.89 2.098 1.066 2.098.177 0 .321.218.321.484 0 .808 3.299 7.109 3.723 7.109.217 0 2.99-1.664 6.161-3.697 3.172-2.033 6.059-3.876 6.416-4.096a12.91 12.91 0 0 0 1.142-.799c.27-.22 1.087-.808 1.815-1.307 5.469-3.753 16.227-11.555 16.754-12.149.355-.401.831-.73 1.056-.73.226 0 .965-.494 1.643-1.099.677-.604 2.135-1.802 3.239-2.662 2.208-1.721 2.608-3.687 1.618-7.95-.526-2.264-.825-7.616-1.143-20.451-.274-11.081-.425-11.945-1.873-10.674m8.719 77.754c-.344.594-2.351 3.08-3.966 4.911-.549.622-1.75 2.009-2.671 3.083a131.667 131.667 0 0 1-3.273 3.653c-.879.936-2.79 3.025-4.248 4.642a449.585 449.585 0 0 1-3.711 4.075c-1.289 1.379-1.096 2.421.712 3.853.689.546 1.83 1.535 2.535 2.198.705.663 1.86 1.654 2.568 2.204.707.549 1.479 1.185 1.715 1.413.236.228 1.149.947 2.028 1.598.879.652 1.778 1.375 1.998 1.607.595.629 3.306 2.575 3.587 2.575.134 0 .729.449 1.321.999.593.549 1.304.999 1.581.999.277 0 .504.151.504.336 0 .185.629.676 1.398 1.09.77.414 1.399.892 1.399 1.062 0 .17.27.309.599.309.33 0 .6.176.6.392 0 .215.449.505.999.643.549.137.999.373.999.523 0 .149.899.797 1.998 1.439s1.998 1.309 1.998 1.482c0 .174.257.316.571.316.314 0 .864.293 1.222.651.79.79 4.201 1.273 4.201.594 0-.251-.18-.814-.4-1.25l-.772-1.544c-.204-.413-.494-1.402-.643-2.198-.15-.796-.432-1.448-.627-1.448-.196 0-.355-.439-.355-.975 0-.537-.164-1.077-.365-1.201-.201-.124-.486-.943-.634-1.82-.148-.877-.434-1.695-.634-1.82-.201-.124-.365-.664-.365-1.2 0-.537-.16-.976-.355-.976-.194 0-.474-.805-.622-1.789-.148-.984-.438-1.893-.645-2.021-.207-.128-.376-.642-.376-1.142 0-.5-.135-1.043-.3-1.208-.283-.283-1.087-3.114-1.569-5.528-.121-.605-.356-1.099-.523-1.099-.166 0-.421-.892-.565-1.982-.145-1.089-.438-2.089-.651-2.221-.214-.132-.388-.681-.388-1.221 0-.539-.173-1.293-.384-1.674-.385-.697-1.099-3.565-1.492-5.989-.115-.714-.345-1.299-.511-1.299-.165 0-.415-.973-.555-2.163-.391-3.329-1.845-4.757-2.933-2.879" fill="#a1cd3a" fill-rule="evenodd"/></svg>